<svg version="1.1" xmlns="http://www.w3.org/2000/svg" xmlns:xlink="http://www.w3.org/1999/xlink" x="0px" y="0px" width="3840px"
	 height="2160px" viewBox="0 0 3840 2160" enable-background="new 0 0 3840 2160" xml:space="preserve">

	 <defs>
	 	<image id="plant_base" overflow="visible" width="300" height="300" xlink:href="./build.png"></image>
	 	<image id="bg" x="0" y="0" overflow="visible" width="3840" height="2160" xlink:href="./bg.jpg"></image>
	 	<g id="tree">
			<path fill="#1D953A" d="M167.985,664.148c-1.3,0-2.458-0.822-2.887-2.049c-0.075-0.217-0.146-0.437-0.214-0.661    c-1.325-4.427-0.885-9.889,1.38-17.184c1.675-5.388,4.172-11.272,7.061-17.766c-6.521-3.641-10.619-8.095-15.281-13.154    c-6.091-6.608-13.671-14.833-30.073-25.028c-1.164-0.719-1.708-2.123-1.333-3.438c0.375-1.315,1.577-2.222,2.945-2.22    c13.421,0.019,25.483,6.971,35.184,12.556c7.26,4.182,14.117,8.131,17.389,6.394c0.083-0.044,0.227-0.146,0.366-0.231    c0.208-0.138,0.468-0.31,0.766-0.477c0.377-0.209,0.655-0.375,0.923-0.534l0.129-0.077c0.107-0.064,0.189-0.163,0.232-0.279    c6.641-18.283,7.535-31.929,2.817-42.932c-0.59-1.393-0.074-3.007,1.216-3.799c1.289-0.792,2.962-0.522,3.938,0.635    c5.463,6.518,8.394,13.822,9.224,22.988c0.721,7.96-0.242,16.393-1.26,25.321c-0.276,2.423-0.556,4.884-0.81,7.383    c1.561-1.386,3.112-2.45,4.64-3.495c5.232-3.605,10.642-7.32,17.617-26.714c0.52-1.44,2.024-2.275,3.521-1.952    c1.497,0.323,2.524,1.703,2.404,3.229c-1.999,25.185-9.988,34.474-18.454,44.301c-3.308,3.845-6.722,7.813-9.957,12.952    c0.909,7.56,2.823,14.965,5.689,22.02c0.633,1.566-0.123,3.349-1.689,3.981c-1.565,0.634-3.348-0.122-3.981-1.688    c-3.209-7.898-5.303-16.206-6.219-24.682c-0.074-0.671,0.076-1.349,0.428-1.926c3.662-5.997,7.437-10.392,11.089-14.639    c4.66-5.405,8.942-10.387,12.105-18.006c-3.244,4.136-6.261,6.208-9.089,8.155c-3.331,2.288-6.208,4.264-9.259,9.811    c-0.687,1.247-2.142,1.854-3.511,1.467s-2.29-1.667-2.222-3.089c0.304-6.229,0.975-12.114,1.624-17.805    c0.857-7.524,1.64-14.374,1.456-20.697c-0.865,6.368-2.697,13.356-5.57,21.269c-0.525,1.444-1.533,2.662-2.853,3.449l-0.124,0.074    c-0.28,0.166-0.626,0.374-1.088,0.631c-0.086,0.048-0.215,0.134-0.351,0.224c-0.282,0.193-0.574,0.373-0.874,0.537    c-3.976,2.11-8.335,0.859-11.27-0.264c-3.641-1.395-7.718-3.746-12.04-6.232c-5.719-3.295-11.894-6.848-18.463-9.179    c9.222,6.945,14.664,12.849,19.282,17.859c5.232,5.68,9.012,9.779,16.073,13.152c1.499,0.716,2.151,2.498,1.471,4.012    c-5.433,12.101-11.589,25.815-9.342,33.33c0.041,0.134,0.084,0.269,0.129,0.402c0.327,0.935,0.18,1.971-0.394,2.779    c-0.573,0.808-1.502,1.287-2.494,1.287H167.985z M167.985,664.148"/>
			<path fill="#1D953A" d="M222.26,673.33h-73.538c-1.309,0-2.473-0.833-2.895-2.071c-0.421-1.239-0.008-2.609,1.027-3.409    c0.332-0.255,8.274-6.291,21.761-9.319c7.973-1.778,16.191-2.166,24.296-1.148c10.244,1.259,20.605,4.693,30.796,10.207    c1.231,0.666,1.853,2.083,1.509,3.44c-0.344,1.357-1.566,2.308-2.966,2.307L222.26,673.33z M161.065,667.214h46.924    c-12.784-4.556-25.43-5.496-37.734-2.785c-3.134,0.687-6.209,1.618-9.197,2.785H161.065z M178.207,654.325    c-0.786,0.002-1.447-0.593-1.526-1.375c-1.045-10.274,4.887-19.098,5.14-19.468c0.482-0.681,1.421-0.849,2.11-0.378    c0.688,0.47,0.874,1.405,0.416,2.103c-0.085,0.125-5.553,8.321-4.624,17.435c0.086,0.84-0.526,1.59-1.366,1.676    C178.308,654.322,178.258,654.325,178.207,654.325L178.207,654.325z M184.534,652.888c-0.78-0.001-1.435-0.59-1.519-1.366    c-0.465-4.335,1.033-8.329,1.097-8.497c0.303-0.785,1.183-1.178,1.97-0.878c0.786,0.299,1.183,1.177,0.889,1.965    c-0.023,0.063-1.297,3.512-0.915,7.084c0.09,0.84-0.518,1.593-1.357,1.683C184.645,652.885,184.59,652.888,184.534,652.888    L184.534,652.888z M184.534,652.888"/>
			<path fill="#1D953A" d="M181.596,572.177c2.439,4.729,0.583,10.541-4.146,12.979c-4.729,2.44-10.54,0.584-12.979-4.145    c-2.439-4.729-0.759-22.487-0.759-22.487S179.157,567.446,181.596,572.177L181.596,572.177z M181.596,572.177"/>
			<path fill="#1D953A" d="M166.846,583.34c0.462,0.895,1.366,1.475,2.371,1.523c1.006,0.048,1.96-0.445,2.504-1.292    c0.543-0.846,0.595-1.919,0.133-2.814s-1.366-1.475-2.371-1.522c-1.006-0.048-1.961,0.444-2.505,1.292    C166.436,581.373,166.385,582.445,166.846,583.34L166.846,583.34z M166.846,583.34"/>
			<path fill="#1D953A" d="M173.041,589.289c-4.755-0.004-9.11-2.658-11.294-6.88c-0.801-1.565-1.85-4.769-1.627-14.483    c0.116-5.081,0.532-9.502,0.549-9.688c0.099-1.037,0.718-1.952,1.643-2.429c0.925-0.478,2.03-0.452,2.931,0.069    c0.162,0.093,4.005,2.319,8.213,5.168c8.047,5.451,10.048,8.164,10.859,9.729c2.024,3.934,1.854,8.638-0.446,12.417    C181.567,586.972,177.465,589.281,173.041,589.289L173.041,589.289z M166.395,563.724c-0.376,6.901-0.214,13.932,0.793,15.884    c1.666,3.228,5.632,4.496,8.86,2.83c3.228-1.665,4.495-5.632,2.83-8.86C177.871,571.625,172.235,567.419,166.395,563.724    L166.395,563.724z M166.395,563.724"/>
			<path fill="#1D953A" d="M176.827,585.488c-0.573,0-1.097-0.319-1.36-0.828l-11.175-21.674c-0.259-0.486-0.236-1.074,0.06-1.539    s0.818-0.734,1.369-0.707c0.55,0.029,1.042,0.35,1.289,0.843l11.183,21.675c0.245,0.476,0.224,1.043-0.055,1.499    C177.857,585.213,177.361,585.49,176.827,585.488L176.827,585.488z M176.827,585.488"/>
			<path fill="#1D953A" d="M171.293,576.173c-0.16,0-0.319-0.025-0.471-0.074l-7.553-2.443c-0.804-0.26-1.246-1.123-0.986-1.927    c0.26-0.804,1.122-1.246,1.927-0.985l7.553,2.443c0.72,0.228,1.167,0.949,1.049,1.695    C172.695,575.629,172.049,576.177,171.293,576.173L171.293,576.173z M174.145,579.206c-0.487-0.001-0.944-0.234-1.231-0.626    c-0.288-0.393-0.371-0.898-0.226-1.363l2.388-7.572c0.144-0.546,0.576-0.968,1.125-1.099c0.549-0.13,1.125,0.052,1.499,0.474    c0.374,0.423,0.485,1.017,0.289,1.545l-2.388,7.572C175.4,578.773,174.811,579.205,174.145,579.206L174.145,579.206z     M174.145,579.206"/>
			<path fill="#1D953A" d="M139.985,564.151c3.9,2.549,4.996,7.777,2.447,11.678c-2.549,3.9-7.778,4.996-11.678,2.447    c-3.898-2.555-10.282-16.801-10.282-16.801S136.086,561.603,139.985,564.151L139.985,564.151z M139.985,564.151"/>
			<g>
				<defs>
					<rect id="SVGID_103_" x="117.415" y="545.522" width="132.661" height="127.971"/>
				</defs>
				<clipPath id="SVGID_104_">
					<use xmlns:xlink="http://www.w3.org/1999/xlink" xlink:href="#SVGID_103_" overflow="visible"/>
				</clipPath>
				<path clip-path="url(#SVGID_104_)" fill="#1D953A" d="M133.57,579.019c0.738,0.482,1.677,0.535,2.464,0.137     c0.786-0.398,1.301-1.185,1.35-2.065s-0.376-1.719-1.114-2.201c-0.738-0.482-1.677-0.535-2.463-0.137     c-0.787,0.398-1.301,1.186-1.35,2.065C132.408,577.698,132.833,578.537,133.57,579.019L133.57,579.019z M133.57,579.019"/>
				<path clip-path="url(#SVGID_104_)" fill="#1D953A" d="M135.352,582.701c-2.228,0.002-4.407-0.648-6.271-1.87     c-1.329-0.861-3.559-2.9-7.625-10.472c-2.11-3.932-3.709-7.488-3.776-7.637c-0.422-0.946-0.337-2.041,0.227-2.91     c0.564-0.869,1.529-1.394,2.565-1.395h0.026c0.165,0,4.064,0.038,8.513,0.394c8.569,0.686,11.322,1.917,12.649,2.784     c4.263,2.781,6.188,8.036,4.732,12.913c-1.457,4.877-5.949,8.215-11.039,8.203L135.352,582.701z M125.408,564.699     c0.437,0.874,0.934,1.831,1.456,2.8c3.604,6.709,5.269,8.018,5.566,8.213c2.485,1.625,5.817,0.927,7.442-1.558     s0.928-5.817-1.558-7.442c-0.291-0.195-2.169-1.197-9.79-1.807C127.438,564.818,126.381,564.751,125.408,564.699L125.408,564.699     z M125.408,564.699"/>
			</g>
			<path fill="#1D953A" d="M141.441,576.71c-0.297,0.001-0.588-0.085-0.835-0.248l-17.871-11.684    c-0.48-0.288-0.764-0.815-0.741-1.375s0.35-1.061,0.853-1.309c0.503-0.247,1.1-0.2,1.557,0.123l17.872,11.684    c0.566,0.37,0.822,1.067,0.629,1.715C142.712,576.265,142.117,576.71,141.441,576.71L141.441,576.71z M141.441,576.71"/>
			<path fill="#1D953A" d="M126.393,573.407c-0.785,0-1.444-0.594-1.523-1.375c-0.079-0.782,0.447-1.496,1.217-1.652l6.808-1.399    c0.827-0.17,1.636,0.362,1.806,1.189s-0.362,1.635-1.189,1.806l-6.808,1.399C126.601,573.396,126.497,573.407,126.393,573.407    L126.393,573.407z M136.681,573.086c-0.721,0-1.344-0.504-1.494-1.21l-1.456-6.797c-0.176-0.826,0.351-1.638,1.176-1.814    s1.638,0.35,1.814,1.176l1.457,6.798c0.095,0.451-0.017,0.922-0.308,1.281C137.58,572.878,137.142,573.086,136.681,573.086    L136.681,573.086z M136.681,573.086"/>
			<path fill="#1D953A" d="M149.159,615.698c5.311-0.332,9.885,3.704,10.217,9.015c0.332,5.311-3.705,9.885-9.015,10.216    c-5.311,0.332-20.892-8.348-20.892-8.348S143.849,616.029,149.159,615.698L149.159,615.698z M149.159,615.698"/>
			<path fill="#1D953A" d="M150.458,631.058c0.063,1.005,0.657,1.9,1.558,2.348s1.973,0.381,2.813-0.176    c0.839-0.557,1.317-1.518,1.253-2.523c-0.062-1.005-0.656-1.9-1.557-2.348c-0.902-0.448-1.974-0.381-2.813,0.175    C150.874,629.091,150.396,630.053,150.458,631.058L150.458,631.058z M150.458,631.058"/>
			<path fill="#1D953A" d="M150.019,637.999c-1.893,0-5.397-0.616-13.396-4.348c-4.606-2.151-8.487-4.308-8.65-4.397    c-0.909-0.507-1.499-1.442-1.563-2.481c-0.065-1.039,0.403-2.041,1.243-2.656c0.146-0.111,3.732-2.733,8.036-5.44    c8.227-5.175,11.516-5.919,13.275-6.03c6.997-0.438,13.023,4.88,13.46,11.877c0.437,6.997-4.881,13.023-11.878,13.461    C150.39,637.992,150.213,637.999,150.019,637.999L150.019,637.999z M135.312,626.217c6.016,3.042,12.35,5.667,14.693,5.667h0.169    c3.625-0.227,6.38-3.349,6.153-6.974c-0.226-3.625-3.349-6.38-6.974-6.153c-2.196,0.131-8.315,3.6-14.046,7.461H135.312z     M135.312,626.217"/>
			<path fill="#1D953A" d="M133.69,627.847c-0.845,0.026-1.55-0.638-1.576-1.482c-0.026-0.845,0.638-1.55,1.482-1.576l24.342-1.52    c0.844-0.053,1.572,0.589,1.625,1.433c0.052,0.845-0.589,1.572-1.434,1.625l-24.344,1.518L133.69,627.847z M133.69,627.847"/>
			<path fill="#1D953A" d="M142,633.587c-0.603,0-1.148-0.354-1.394-0.903c-0.247-0.549-0.148-1.192,0.253-1.642l5.274-5.93    c0.563-0.631,1.531-0.687,2.163-0.124c0.631,0.563,0.687,1.531,0.124,2.163l-5.275,5.934    C142.853,633.408,142.436,633.59,142,633.587L142,633.587z M151.197,626.262c-0.37,0-0.729-0.134-1.007-0.378l-5.97-5.23    c-0.635-0.557-0.699-1.523-0.143-2.158c0.557-0.636,1.522-0.699,2.158-0.143l5.97,5.231c0.479,0.419,0.648,1.093,0.424,1.688    S151.834,626.262,151.197,626.262L151.197,626.262z M151.197,626.262"/>
			<path fill="#1D953A" d="M225.609,571.107c-2.603,4.641-8.475,6.293-13.116,3.691c-4.642-2.603-6.294-8.475-3.692-13.116    c2.603-4.641,18.349-13.021,18.349-13.021S228.206,566.466,225.609,571.107L225.609,571.107z M225.609,571.107"/>
			<g>
				<defs>
					<rect id="SVGID_105_" x="117.415" y="545.522" width="132.661" height="127.971"/>
				</defs>
				<clipPath id="SVGID_106_">
					<use xmlns:xlink="http://www.w3.org/1999/xlink" xlink:href="#SVGID_105_" overflow="visible"/>
				</clipPath>
				<path clip-path="url(#SVGID_106_)" fill="#1D953A" d="M209.24,568.787c1.357,0.762,3.075,0.278,3.836-1.079     c0.761-1.358,0.278-3.075-1.079-3.836c-1.358-0.761-3.075-0.278-3.836,1.079C207.399,566.309,207.883,568.026,209.24,568.787     L209.24,568.787z M209.24,568.787"/>
				<path clip-path="url(#SVGID_106_)" fill="#1D953A" d="M217.181,579.096c-4.503-0.009-8.665-2.402-10.938-6.29     c-2.273-3.888-2.317-8.688-0.115-12.617c0.862-1.539,2.96-4.181,11.191-9.344c4.304-2.703,8.222-4.792,8.386-4.88     c0.918-0.49,2.023-0.479,2.932,0.03c0.908,0.508,1.496,1.445,1.559,2.484c0.012,0.186,0.272,4.619,0.211,9.701     c-0.115,9.719-1.274,12.886-2.136,14.417c-1.639,2.943-4.387,5.107-7.633,6.011C219.514,578.929,218.351,579.092,217.181,579.096     L217.181,579.096z M224.283,553.757c-5.97,3.495-11.744,7.499-12.814,9.415c-1.149,2.049-1.118,4.557,0.083,6.576     c1.2,2.02,3.387,3.246,5.736,3.217c2.35-0.03,4.505-1.31,5.654-3.36C224.008,567.695,224.418,560.673,224.283,553.757     L224.283,553.757z M224.283,553.757"/>
			</g>
			<path fill="#1D953A" d="M213.146,575.154c-0.543-0.001-1.045-0.289-1.319-0.757s-0.28-1.047-0.013-1.521l11.927-21.273    c0.413-0.736,1.345-0.999,2.082-0.586c0.737,0.413,1,1.345,0.586,2.082l-11.928,21.274    C214.21,574.855,213.7,575.154,213.146,575.154L213.146,575.154z M213.146,575.154"/>
			<path fill="#1D953A" d="M217.867,565.397c-0.687-0.001-1.288-0.458-1.472-1.12l-2.123-7.651c-0.159-0.53-0.018-1.104,0.367-1.501    s0.955-0.556,1.49-0.414s0.952,0.562,1.089,1.098l2.131,7.65c0.127,0.46,0.032,0.954-0.257,1.334    c-0.289,0.381-0.739,0.604-1.217,0.604H217.867z M216.909,569.447c-0.763,0-1.41-0.562-1.515-1.317    c-0.106-0.756,0.361-1.473,1.096-1.682l7.633-2.185c0.805-0.211,1.631,0.259,1.86,1.06c0.228,0.8-0.226,1.636-1.021,1.881    l-7.633,2.184C217.192,569.427,217.051,569.446,216.909,569.447L216.909,569.447z M216.909,569.447"/>
			<path fill="#1D953A" d="M231.338,635.278c-4.974,1.892-10.539-0.606-12.431-5.58s0.606-10.539,5.58-12.431    c4.973-1.893,22.425,1.777,22.425,1.777S236.313,633.386,231.338,635.278L231.338,635.278z M231.338,635.278"/>
			<g>
				<defs>
					<rect id="SVGID_107_" x="117.415" y="545.522" width="132.661" height="127.971"/>
				</defs>
				<clipPath id="SVGID_108_">
					<use xmlns:xlink="http://www.w3.org/1999/xlink" xlink:href="#SVGID_107_" overflow="visible"/>
				</clipPath>
				<path clip-path="url(#SVGID_108_)" fill="#1D953A" d="M220.272,622.998c0.358,0.941,1.191,1.62,2.185,1.78     c0.994,0.161,1.998-0.221,2.634-1.002c0.636-0.78,0.807-1.841,0.449-2.782c-0.358-0.94-1.191-1.619-2.185-1.78     c-0.994-0.16-1.998,0.222-2.633,1.002C220.086,620.997,219.915,622.058,220.272,622.998L220.272,622.998z M220.272,622.998"/>
				<path clip-path="url(#SVGID_108_)" fill="#1D953A" d="M227.928,638.966c-6.127,0.006-11.385-4.367-12.496-10.393     s2.242-11.986,7.969-14.165c1.647-0.626,4.951-1.311,14.582,0c5.035,0.687,9.382,1.602,9.563,1.635     c1.018,0.215,1.856,0.932,2.226,1.903c0.371,0.972,0.221,2.065-0.395,2.903c-0.111,0.145-2.754,3.717-6.06,7.572     c-6.321,7.383-9.241,9.069-10.889,9.695C230.992,638.672,229.467,638.959,227.928,638.966L227.928,638.966z M228.709,619.779     c-1.412,0-2.505,0.106-3.135,0.346c-3.395,1.292-5.101,5.091-3.809,8.487c1.292,3.395,5.091,5.1,8.486,3.808     c2.053-0.782,6.869-5.908,11.197-11.296C236.722,620.327,231.905,619.779,228.709,619.779L228.709,619.779z M228.709,619.779"/>
			</g>
			<path fill="#1D953A" d="M220.168,630.749c-0.739,0.002-1.374-0.525-1.507-1.252s0.271-1.445,0.963-1.707l22.795-8.671    c0.789-0.3,1.673,0.096,1.973,0.885c0.3,0.789-0.096,1.673-0.886,1.973l-22.795,8.669    C220.538,630.712,220.354,630.748,220.168,630.749L220.168,630.749z M220.168,630.749"/>
			<path fill="#1D953A" d="M230.045,626.292c-0.52,0-1.003-0.265-1.285-0.702c-0.281-0.437-0.321-0.986-0.108-1.459l3.276-7.231    c0.226-0.498,0.7-0.837,1.243-0.891c0.544-0.054,1.075,0.187,1.393,0.631c0.318,0.445,0.375,1.024,0.15,1.522l-3.281,7.232    C231.188,625.938,230.644,626.29,230.045,626.292L230.045,626.292z M233.967,632.008c-0.214,0-0.425-0.045-0.62-0.132    l-7.255-3.225c-0.771-0.343-1.12-1.246-0.776-2.018c0.343-0.772,1.247-1.12,2.019-0.776l7.254,3.224    c0.661,0.293,1.026,1.009,0.876,1.716C235.314,631.504,234.689,632.01,233.967,632.008L233.967,632.008z M178.095,618.909    c-0.119,0-0.238-0.015-0.355-0.042c-5.164-1.228-10.442-8.675-11.026-9.52c-0.483-0.694-0.312-1.648,0.383-2.131    c0.694-0.482,1.648-0.311,2.131,0.384c1.406,2.03,5.806,7.474,9.219,8.285c0.756,0.178,1.258,0.895,1.167,1.666    c-0.09,0.771-0.744,1.353-1.521,1.352V618.909z M156.093,667.547c-0.612-0.003-1.163-0.37-1.401-0.933l-5.635-13.223    c-0.264-0.759,0.106-1.593,0.846-1.908c0.74-0.315,1.597-0.002,1.961,0.714l3.132,7.348l0.245-3.64    c0.057-0.845,0.787-1.483,1.631-1.427c0.845,0.057,1.483,0.787,1.426,1.632l-0.672,10.016c-0.054,0.803-0.721,1.426-1.527,1.427    L156.093,667.547z M209.56,665.759c-0.406,0-0.795-0.161-1.082-0.448c-0.287-0.287-0.448-0.675-0.448-1.081v-17.115    c0-0.845,0.685-1.529,1.529-1.529c0.844,0,1.529,0.685,1.529,1.529v11.422l1.748-3.01c0.267-0.484,0.776-0.786,1.33-0.79    c0.554-0.003,1.065,0.293,1.338,0.775c0.273,0.482,0.264,1.073-0.023,1.547l-4.594,7.938    C210.613,665.471,210.106,665.761,209.56,665.759L209.56,665.759z M209.56,665.759"/>
		</g>
		<g id="tree2">
			<path fill="#1D953A" d="M456.819,685.903h-113.94c-2.018,0-3.588-1.569-3.588-3.588c0-2.019,1.57-3.588,3.588-3.588h35.663    l1.57-12.112h-21.083c-0.673,0-1.345-0.449-1.57-0.897c-0.224-0.673-0.224-1.346,0-1.794l3.365-5.384l-1.57,0.225h-0.224    c-0.673,0-1.121-0.225-1.57-0.897c-0.448-0.673-0.448-1.346,0-2.019l11.214-18.391l-5.159,0.673h-0.224    c-0.673,0-1.121-0.225-1.57-0.897c-0.448-0.673-0.448-1.346,0-1.795l3.14-5.383l-1.121,0.224    c-0.673,0.225-1.346-0.224-1.795-0.672c-0.448-0.673-0.448-1.346,0-2.019l8.523-14.13h-3.588c-0.673,0-1.345-0.449-1.57-0.897    c-0.224-0.673-0.224-1.346,0.225-1.794l6.953-8.972h-1.794c-0.673,0-1.122-0.224-1.57-0.897c-0.224-0.448-0.449-1.121,0-1.794    l16.149-30.728c0.224-0.673,0.897-0.897,1.57-0.897c0.672,0,1.345,0.449,1.569,0.897l16.149,30.504    c0.225,0.224,0.225,0.673,0.225,0.897c0,0.897-0.897,1.794-1.795,1.794h-1.794l6.729,8.971c0.225,0.225,0.449,0.673,0.449,1.122    c0,0.897-0.897,1.794-1.794,1.794h-3.589l8.523,13.906c0.225,0.224,0.449,0.673,0.449,1.121c0,0.897-0.897,1.794-1.794,1.794    h-0.449l-1.122-0.224l2.916,5.159c0.225,0.224,0.225,0.673,0.225,1.122c0,0.897-0.673,1.794-1.794,1.794h-0.449l-5.159-0.449    l11.214,18.393c0.449,0.672,0.449,1.345,0,2.019c-0.448,0.673-1.121,0.897-1.794,0.673l-1.57-0.225l3.364,5.16    c0.224,0.224,0.449,0.672,0.449,1.121c0,0.897-0.673,1.794-1.794,1.794h-21.308l1.794,12.112h27.588l0.897-6.953H408.82    c-0.448,0-0.897-0.224-1.121-0.673c-0.224-0.448-0.224-0.897,0-1.122l0.897-1.346h5.159c2.019,0,3.365-1.57,3.365-3.589    c0-0.673-0.224-1.57-0.673-2.018l-1.57-2.244c0.673-0.224,1.122-0.673,1.57-1.345c0.673-1.122,0.897-2.692,0-3.813l-0.673-3.364    l-2.916-4.71l-0.224-0.449l-1.346-2.243l-3.139-5.159l1.794,0.225h0.672c2.019,0,3.364-1.57,3.364-3.588v-0.673    c0-0.449-0.224-0.673-0.448-1.122c0-0.224,0-0.448,0.224-0.672l4.711-6.056h-1.122c-0.448,0-0.897-0.225-1.121-0.673    c-0.224-0.449-0.224-0.897,0-1.122l10.99-20.635c0.224-0.448,0.673-0.672,1.121-0.672c0.449,0,0.897,0.225,1.121,0.672    l10.991,20.635c0.225,0.225,0.225,0.449,0.225,0.673c0,0.673-0.449,1.122-1.122,1.122h-1.122l4.486,6.056    c0.224,0.224,0.224,0.448,0.224,0.897c0,0.672-0.448,1.122-1.121,1.122h-2.467l5.832,9.42c0.224,0.224,0.224,0.449,0.224,0.673    c0,0.673-0.448,1.121-1.121,1.121h-1.57l2.019,3.588c0.224,0.225,0.224,0.449,0.224,0.673c0,0.673-0.449,1.121-1.122,1.121    l-3.588-0.448l7.626,12.336c0.224,0.449,0.224,0.897,0,1.346c-0.224,0.448-0.673,0.673-1.121,0.448l-1.122-0.224l2.243,3.589    c0.224,0.225,0.224,0.449,0.224,0.673c0,0.673-0.448,1.121-1.121,1.121H432.82l1.122,6.954h23.55c2.019,0,3.588,1.569,3.588,3.588    C461.081,683.885,458.838,685.903,456.819,685.903L456.819,685.903z M363.289,630.504    C363.289,630.504,363.513,630.504,363.289,630.504C363.513,630.504,363.513,630.504,363.289,630.504L363.289,630.504z     M363.289,630.504">
				
			</path>
		</g>
		<g id="tree3">
			<g>
				<defs>
					<rect id="SVGID_35_" x="250.107" y="800.573" width="87.817" height="120.542"/>
				</defs>
				<clipPath id="SVGID_36_">
					<use xmlns:xlink="http://www.w3.org/1999/xlink" xlink:href="#SVGID_35_" overflow="visible"/>
				</clipPath>
				<path clip-path="url(#SVGID_36_)" fill="#05717A" d="M310.885,897.97c6.29-1.975,9.921,3.271,18.193-2.984     c8.272-6.254,9.584-17.25,8.474-20.581c-2.219-8.675-8.071-11.299-8.463-16.865c-0.403-5.633,5.539-7.75,2.774-16.248     c-3.553-10.922-8.796-8.291-9.604-9.5c-0.807-1.21,2.058-3.627-2.664-13.074c-3.329-6.658-5.549-4.836-7.768-7.263     c-2.219-2.428-0.604-3.676-2.926-5.24c-3.429-2.32-2.521,0.504-8.07-1.209c-4.741-1.476-7.772-5.755-12.508-4.041     c-11.039,3.992-7.487,11.782-9.707,14.202c-2.219,2.421-5.829,1.938-7.846,4.165c-2.018,2.226-4.03,8.273-4.03,10.291     s0.403,7.062,0,8.272c-0.403,1.211-3.51-0.282-5.932,2.139c-2.423,2.42-0.729,3.995-2.945,7.223     c-2.216,3.228-7.711,4.15-7.755,12.427c-0.054,10.189,4.488,10.961,3.585,14.942c-1.015,4.476-4.715,11.284-0.881,18.349     c3.834,7.065,10.291,11.9,18.159,11.698c7.868-0.201,5.239-2.623,10.089-2.623c4.85,0,9.886,3.224,18.764,1.412     S306.987,899.196,310.885,897.97L310.885,897.97z M310.885,897.97"/>
			</g>
			<path fill="#5BA983" d="M312.001,873.198c0.715,0,2.22,0.202,2.418,2.758c0.135,1.485-0.366,2.958-1.379,4.052    s-1.244-1.362-1.513-2.707C311.121,875.19,312.135,874.106,312.001,873.198L312.001,873.198z M326.51,884.412    c-0.37-0.611-0.977-2.003,1.105-3.492c1.2-0.886,2.72-1.22,4.181-0.919c1.46,0.299-0.521,1.769-1.533,2.696    C328.668,884.133,327.218,883.826,326.51,884.412L326.51,884.412z M278.732,871.648c0.672,0.261,1.994,0.997,1.249,3.45    c-0.415,1.432-1.418,2.621-2.76,3.271c-1.343,0.65-0.663-1.722-0.424-3.072C277.191,873.186,278.526,872.543,278.732,871.648    L278.732,871.648z M269.754,863.884c0.706-0.117,2.222-0.164,2.838,2.325c0.376,1.443,0.122,2.978-0.698,4.222    c-0.821,1.245-1.45-1.141-1.936-2.418C269.217,865.997,270.035,864.758,269.754,863.884L269.754,863.884z M258.59,887.559    c0.705-0.117,2.222-0.164,2.838,2.325c0.376,1.442,0.122,2.978-0.698,4.223c-0.821,1.244-1.45-1.141-1.936-2.419    C258.052,889.666,258.871,888.432,258.59,887.559L258.59,887.559z M287.743,849.751c0.711,0.076,2.187,0.434,2.118,2.997    c-0.021,1.491-0.674,2.903-1.797,3.885c-1.123,0.981-1.094-1.486-1.22-2.851C286.665,851.64,287.783,850.669,287.743,849.751    L287.743,849.751z M276.355,836.032c0.71,0.075,2.186,0.434,2.117,2.997c-0.022,1.491-0.678,2.903-1.801,3.884    c-1.125,0.981-1.094-1.486-1.22-2.851C275.274,837.92,276.392,836.949,276.355,836.032L276.355,836.032z M289.911,821.97    c0.714,0.014,2.215,0.245,2.369,2.804c0.108,1.489-0.421,2.954-1.456,4.03c-1.036,1.077-1.219-1.385-1.462-2.734    C288.998,823.949,290.027,822.875,289.911,821.97L289.911,821.97z M297.493,829.366c0.709-0.091,2.227-0.08,2.749,2.431    c0.321,1.456,0.009,2.98-0.859,4.193c-0.867,1.213-1.405-1.194-1.841-2.496C296.879,831.452,297.743,830.25,297.493,829.366    L297.493,829.366z M307.822,816.064c0.71,0.074,2.187,0.431,2.124,2.992c-0.018,1.491-0.668,2.905-1.79,3.889    c-1.121,0.984-1.097-1.478-1.227-2.848C306.747,817.957,307.862,816.981,307.822,816.064L307.822,816.064z M314.553,822.946    c0.711,0.074,2.188,0.429,2.124,2.992c-0.018,1.492-0.668,2.905-1.79,3.889c-1.12,0.984-1.097-1.478-1.226-2.848    C313.479,824.837,314.587,823.862,314.553,822.946L314.553,822.946z M319.078,835.172c0.713-0.049,2.228,0.052,2.6,2.59    c0.235,1.472-0.167,2.975-1.104,4.134c-0.938,1.16-1.333-1.276-1.692-2.599C318.339,837.218,319.273,836.068,319.078,835.172    L319.078,835.172z M310.804,838.474c0.634-0.331,2.063-0.846,3.422,1.327c0.805,1.255,1.042,2.792,0.648,4.231    c-0.393,1.438-1.733-0.633-2.593-1.702C310.95,840.645,311.343,839.218,310.804,838.474L310.804,838.474z M316.488,852.654    c0.604,0.039,1.866,0.291,1.897,2.463c0.036,1.266-0.468,2.486-1.386,3.358c-0.918,0.872-0.978-1.22-1.133-2.371    C315.64,854.291,316.553,853.428,316.488,852.654L316.488,852.654z M324.215,842.07c0.56-0.228,1.805-0.552,2.782,1.389    c0.583,1.124,0.662,2.443,0.215,3.627s-1.412-0.671-2.054-1.639C324.167,843.913,324.612,842.739,324.215,842.07L324.215,842.07z     M291.193,836.112c0.561-0.229,1.806-0.552,2.782,1.389c0.583,1.124,0.662,2.443,0.215,3.627    c-0.446,1.185-1.412-0.671-2.054-1.639C291.145,837.955,291.59,836.781,291.193,836.112L291.193,836.112z M260.082,858.504    c-0.576-0.187-1.736-0.743-1.23-2.856c0.279-1.232,1.068-2.289,2.171-2.906s0.646,1.423,0.512,2.578    C261.309,857.131,260.211,857.736,260.082,858.504L260.082,858.504z M258.055,870.431c-0.433-0.277-1.268-0.981-0.403-2.607    c0.493-0.953,1.366-1.651,2.403-1.921c1.037-0.271,0.227,1.307-0.135,2.226C259.355,869.564,258.325,869.83,258.055,870.431    L258.055,870.431z M265.066,872.955c-0.432-0.277-1.267-0.981-0.403-2.607c0.493-0.953,1.366-1.65,2.403-1.921    s0.227,1.308-0.134,2.227C266.367,872.085,265.336,872.353,265.066,872.955L265.066,872.955z M269.819,837.93    c-0.322-0.403-0.888-1.334,0.451-2.6c0.771-0.747,1.822-1.13,2.891-1.056c1.07,0.074-0.202,1.312-0.833,2.067    C271.326,837.518,270.265,837.446,269.819,837.93L269.819,837.93z M274.357,828.22c-0.322-0.404-0.888-1.334,0.451-2.6    c0.771-0.746,1.821-1.13,2.891-1.056c1.069,0.074-0.202,1.312-0.833,2.067C275.864,827.81,274.804,827.735,274.357,828.22    L274.357,828.22z M284.886,826.732c-0.509,0.065-1.602,0.057-1.976-1.746c-0.233-1.046-0.011-2.143,0.611-3.016    c0.622-0.873,1.01,0.859,1.325,1.793C285.33,825.232,284.709,826.099,284.886,826.732L284.886,826.732z M285.464,834.696    c-0.476,0.195-1.53,0.473-2.363-1.171c-0.497-0.951-0.565-2.066-0.191-3.071c0.375-1.004,1.2,0.566,1.746,1.387    C285.5,833.136,285.127,834.134,285.464,834.696L285.464,834.696z M291.23,818.408c-0.507,0.084-1.598,0.118-2.042-1.671    c-0.271-1.037-0.088-2.14,0.501-3.036s1.042,0.819,1.392,1.746C291.615,816.893,291.028,817.779,291.23,818.408L291.23,818.408z     M302.566,815.636c0.386,0.338,1.104,1.162,0,2.638c-0.632,0.867-1.601,1.424-2.667,1.534c-1.067,0.11-0.026-1.326,0.467-2.18    C301.149,816.292,302.209,816.19,302.566,815.636L302.566,815.636z M308.519,831.366c-0.511,0.05-1.603,0.01-1.925-1.803    c-0.201-1.054,0.055-2.143,0.703-2.996c0.648-0.854,0.986,0.886,1.272,1.831C309.005,829.879,308.359,830.725,308.519,831.366    L308.519,831.366z M306.326,845.309c-0.511,0.05-1.603,0.011-1.924-1.802c-0.202-1.053,0.054-2.142,0.703-2.996    c0.648-0.854,0.986,0.886,1.271,1.831C306.813,843.82,306.167,844.667,306.326,845.309L306.326,845.309z M306.326,845.309"/>
			<path fill="#005663" d="M294.474,882.148c0,0,3.235-8.541,2.813-13.723c-0.422-5.181-1.387-18.673-1.387-18.673h3.656    l1.746,17.386l3.627-17.386l2.687,1.655c0,0-2.956,11.565-4.173,20.242c-1.217,8.677-2.387,17.421-2.405,19.708    c0,0,3.928-1.897,7.672-3.841c3.744-1.943,8.051-7.535,9.664-7.631c1.614-0.097,2.687,2.459,2.687,2.997    c0,0.537-7.763,7.129-10.271,8.474c-2.508,1.345-5.602,1.881-7.889,4.836s-4.269,8.615-4.077,15.614    c0.192,6.999,0.596,9.147,0.596,9.147h-11.075c0,0,0.046-14.93-0.627-21.119c-0.674-6.187-0.672-11.198-1.612-15.417    c-0.941-4.22-5.304-14.323-7.629-17.275c-2.326-2.951-11.746-11.245-13.493-17.391c-1.343-2.672,0.806-3.638,1.612-2.672    c0.806,0.966,7.13,13.743,12.51,15.896c-1.41-5.515-7.532-13.585-6.995-14.661c0.537-1.076,3.48-1.747,4.632-0.672    c1.152,1.075,0.21,3.052,3.976,7.982c3.768,4.93,5.419,6.439,8.562,12.544C292.421,874.275,294.474,882.148,294.474,882.148    L294.474,882.148z M294.474,882.148"/>
		</g>
		<g id="tree4">
			<g>
				<defs>
					<rect id="SVGID_49_" x="616.948" y="741.452" width="106.12" height="115.096"/>
				</defs>
				<clipPath id="SVGID_50_">
					<use xmlns:xlink="http://www.w3.org/1999/xlink" xlink:href="#SVGID_49_" overflow="visible"/>
				</clipPath>
				<path clip-path="url(#SVGID_50_)" fill="#035F35" d="M628.386,828.8c1.84,0.178,3.682,0.772,5.404,1.069     c0.237,0.06,2.791,0.653,3.028,0.416c-0.297-0.653-0.653-1.306-0.95-1.959h-0.594c-1.009-0.296-2.969,0.178-4.038,0.297     C630.345,828.682,629.336,828.741,628.386,828.8L628.386,828.8z M708.074,809.265c-1.366,1.663-3.8,3.622-5.641,1.365     c-1.247-1.544-0.832-5.522-1.425-8.135c-0.297,0.534-0.654,0.95-1.129,1.366c-2.019,1.603-4.453,1.188-4.988,4.334     c-0.653,3.741,0.832,8.195-3.563,10.214c-0.891,0.416-1.9,0.237-2.435-0.654c-0.95-1.543-1.069-3.028-1.425-4.69     c-0.06-0.475-0.237-0.95-0.416-1.425c-1.009,0.296-1.959,0.653-2.969,0.95c-0.772,0.712-0.95,2.731-1.188,3.741     c-0.832,3.622-1.484,7.601-4.632,9.976c-1.959,1.484-5.522,2.435-7.066-0.178c-1.9-3.147,2.197-6.77,2.791-9.738     c0.535-2.435,0.416-4.929,0.297-7.364c-0.06-1.663-0.475-3.8,0-5.463c1.009-3.266,4.038-1.959,6.472-1.484     c1.425,0.297,4.454,0.653,4.631-1.603c0.06-0.653-0.95-1.841-1.128-2.553c-0.356-1.188-0.534-2.435,0-3.622     c0.95-2.079,3.563-2.435,5.997-2.495c-0.416-0.356-0.831-0.712-1.009-0.95c-0.594-0.95-0.712-1.96-0.476-3.029     c0.594-2.613,6.354-6.294,5.048-9.145c-1.247,1.663-2.494,3.563-4.751,3.622c-0.95,0.06-1.781-0.237-2.375-0.712     c-2.435,2.613-4.81,5.226-7.245,7.779c-1.543,1.663-2.85,2.792-5.106,1.663c-4.751-2.375-7.304-7.719-3.741-12.114     c2.612-3.266,5.106-6.235,6.71-10.154c0.832-2.019,1.84-3.979,0.118-5.701c-0.593-0.593-1.425-0.653-1.899-1.544     c-1.01-1.84,0.178-3.978,1.306-5.463c2.079-2.672,5.225-6.294,3.978-9.797c-2.256,2.375-4.453,4.75-6.71,7.125     c-1.84,1.9-4.275,5.463-6.77,6.532c-1.663,0.712-3.325-0.059-4.156-1.544c-0.594-0.95-0.534-1.959-0.475-3.028     c0.059-0.712,0.059-1.366,0.059-2.019c-0.95,1.128-2.019,2.019-2.435,3.503c-0.356,1.247,0,2.553-0.296,3.8     c-0.95,4.157-4.454,3.919-7.245,2.316c0,1.128,0,2.256,0.119,3.326c0.297,2.494,1.782,3.622,2.91,5.641     c1.782,3.088,1.959,6.77,3.504,9.917c1.188,2.613,3.206,4.988,2.553,8.076c-0.416,1.9-2.02,3.8-4.157,3.444     c-2.672-0.476-4.215-4.513-5.106-6.651c-0.772-1.782-1.129-3.681-1.722-5.522c-0.06-0.296-0.179-0.594-0.238-0.891     c-0.356-1.128-0.772-1.188-1.188-0.297c-0.297,0.119-1.069,1.188-1.247,1.307c-2.019,1.603-4.632,1.722-6.829,0.593     c-2.078-1.069-3.563-1.781-5.938-1.009c-2.613,0.831-1.247,0.296,0.593,0.891c4.157,1.365,6.592,6.235,4.989,10.392     c-0.594,1.484-2.257,2.612-2.672,4.097c-1.128,4.156,3.206,4.097,5.463,4.275c2.791,0.237,5.641,0.059,8.194,1.484     c2.672,1.484,5.107,4.097,7.185,6.235c1.9,1.959,2.019,3.681,2.138,6.354c0.119,3.622,0.178,7.244-0.296,10.867     c-0.297,2.256-0.594,5.523-2.257,7.304c-3.622,3.86-8.373-3.029-9.798-5.879c-1.365-2.791-1.84-5.878-1.959-8.966     c0-0.296-0.06-1.366-0.119-2.434c-0.118,0.178-0.178,0.356-0.237,0.416c-2.315,3.859-7.185,3.325-8.61-0.891     c-0.475-1.426-0.357-2.969-0.416-4.395c0.474-1.365,0.118-2.019-0.95-1.9c-0.238-0.06-0.535-0.06-0.772-0.119     c-0.119,0.119,0.178,1.663,0.178,1.959c0,1.663-0.416,3.86-2.375,4.098c-2.435,0.297-2.553-2.494-3.444-4.038     c-0.237-0.416-3.385-5.047-3.622-5.106c0.237,0.059-2.435,2.137-2.731,2.256c-1.841,0.772-3.86,0.416-3.088,3.266     c0.95,3.504,6.057,4.275,8.907,5.701c1.722,0.891,4.157,2.434,3.682,4.75c-0.416,2.197-2.732,2.078-4.513,2.078     c-1.129,0-3.504-0.831-1.9,0.772c0.95,0.95,1.188,0.772,2.494,0.713c1.722-0.119,3.444-0.297,5.167-0.356     c2.315-0.119,4.75-0.06,6.354,1.84c3.681,4.275-2.02,7.482-5.879,7.007c-1.9-0.237-3.8-0.712-5.701-1.069     c-0.416-0.059-2.197-0.535-2.435-0.356c0.296,0.712,0.653,1.484,0.95,2.197c0.593,0.059,1.188,0.178,1.781,0.237     c3.741,0.356,7.482,0.178,11.164-0.416c3.622-0.594,11.876-0.296,10.985,5.641c-0.296,1.9-1.9,2.732-3.622,2.969     c-3.325,0.475-7.007-0.06-10.391-0.237c-0.712,0.831-1.01,1.722-0.891,2.613c3.029,0.534,6.057,0.534,9.085-0.06     c2.791-0.535,5.047-2.138,7.72-2.85c3.444-0.95,6.591,2.553,7.838,5.344c0.475,1.068,0.772,2.138,0.95,3.266     c0.119,0.891-0.297,2.138,0.356,1.603c1.663-1.306,1.247-5.938,1.366-7.719c0.237-2.969-0.238-8.017,3.385-9.145     c4.394-1.426,4.097,3.859,5.7,6.116c1.425,1.959,3.444,4.097,5.285,5.641c1.426,1.188,3.029,1.306,4.811,1.485     c1.068,0.059,1.306,0.059,1.722-0.297c0.356-0.297,0.534-1.01,0.95-1.425c0.297-0.238,1.307-0.416,1.485-0.712     c0.356-0.535-0.178,0.118-0.771-0.06c-0.297-0.119-0.594-0.297-0.891-0.416c-0.891-0.356-1.782-1.069-2.435-1.722     c-2.197-2.138-4.335-6.294-3.207-9.441c1.188-3.325,4.691-0.95,6.948-0.653c2.435,0.356,4.097,1.603,5.997,3.028     c1.188,0.891,3.623,3.444,5.522,4.097c0.237-2.553,0.95-4.038,4.632-3.682c1.603,0.772,2.138,0.475,1.603-0.831     c0.178-1.307-0.535-1.722-2.078-1.307c-0.653-0.06-1.307-0.119-1.959-0.237c-1.188-0.238-2.375-0.772-3.504-1.247     c-2.256-1.01-5.285-2.375-6.413-4.691c-1.128-2.197,0.06-4.572,2.375-5.285c2.138-0.653,4.81-0.237,7.007-0.178     c3.147,0.06,6.294,0.237,9.441,0.535c0.594,0.059,2.969,0.593,3.563,0.356c1.366-1.188,1.366-2.078-0.119-2.792     c-0.476,0.06-0.891,0.119-1.366,0.119c-1.484-0.178-2.969-0.06-4.275-1.069c-2.553-1.9-2.02-5.285,0.297-7.066     c1.603-1.247,3.385-1.307,5.344-1.485c1.959-0.178,3.741-0.416,4.869-2.138c0.891-1.365,1.366-4.334,0.475-6.116     c-2.553,1.247-3.918,4.988-7.601,3.681c-0.534-0.178-1.128-0.534-1.484-0.95l-0.178-0.178c0,0.06-0.059,0.119-0.059,0.178     C709.083,807.839,708.608,808.611,708.074,809.265L708.074,809.265z M626.664,828.741c-2.553-0.179-4.81-1.069-5.344-3.979     c-0.713-3.978,3.503-5.047,6.651-4.631c-0.654-0.297-1.247-0.594-1.959-0.891l-2.672-1.069c-1.841-0.832-3.622-1.9-4.869-3.503     c-2.078-2.672-2.197-6.889,0.712-9.085c0.712-0.534,1.425-0.653,2.257-0.95c1.544-0.475,2.078-1.188,3.325-2.019     c1.069-0.713,2.375-1.069,3.563-0.357c1.663,0.95,2.197,3.385,3.385,4.87c0.178,0.178,0.297,0.416,0.475,0.652     c0.06-0.475,0.178-0.95,0.297-1.187c0.416-1.069,1.307-1.959,2.375-2.316c0.95-0.297,1.9-0.178,2.732,0.178     c1.128,0.475,2.078,1.426,2.672,2.554c0.831,1.781,0.594,3.563,0.772,5.463c0.297,3.444,1.959,2.138,3.028-0.06     c0.238-0.475,0.297-1.009,0.594-1.425c1.188-1.781,3.741-2.375,5.166-0.534c1.782,2.315,0.416,7.125,0.772,9.857     c0.178,1.663,2.612,10.926,5.76,9.5c1.188-0.534,1.247-7.185,1.307-8.135c0.059-1.9,0.059-3.741,0-5.642     c-0.06-2.553-0.297-4.038-2.079-5.997c-1.307-1.484-3.088-3.147-4.75-4.275c-2.791-1.9-8.789-1.068-12.826-2.315     c-2.138-0.654-3.741-1.841-4.097-4.335c-0.535-3.741,2.969-5.344,3.741-8.551c0.593-2.435-1.01-4.513-3.207-5.285     c-1.247-0.416-2.554-0.297-3.563-1.188c-5.285-4.394,4.453-7.601,7.719-7.185c1.604,0.178,2.553,1.247,3.979,1.841     c3.029,1.247,3.563-0.95,5.344-2.256c1.781-1.247,3.682-0.653,4.988,0.95c2.316,2.791,1.484,7.363,3.919,10.154     c2.612,3.028,0.475-1.722-0.178-2.91c-0.772-1.484-1.366-2.969-1.9-4.572c-0.594-1.959-0.95-4.038-1.841-5.938     c-0.772-1.603-2.256-2.672-3.028-4.216c-1.425-2.909-0.772-7.363-0.772-10.57c0-1.068,0.832-1.663,1.663-1.722     c0.535-0.178,1.128-0.059,1.603,0.535c1.129,1.307,0.95,1.603,2.732,0.951c1.959-0.713,1.188-0.951,1.425-2.554     c0.119-0.831,0.356-1.603,0.772-2.375c1.128-2.079,4.157-3.8,4.157-6.354c0-1.663,2.553-2.553,3.325-0.891     c0.772,1.663,1.365,3.385,1.484,5.225c0.06,0.654-0.356,2.197-0.119,2.732c0.713,1.543,1.782-0.594,2.494-1.247     c3.8-3.8,7.482-7.72,11.104-11.639c0.594-0.653,1.9-0.712,2.494,0c3.385,4.038,2.494,9.145-0.356,13.242     c-0.772,1.069-2.494,2.435-2.791,3.622c-0.297,1.307,0.238,0.832,1.306,1.782c1.366,1.247,1.604,3.147,1.425,4.869     c-0.297,2.732-1.722,5.641-3.028,8.016c-1.544,2.792-4.097,4.929-5.642,7.601c-1.128,2.019-0.534,4.988,1.9,5.998     c0.476,0.178,0.653,0.297,0.772,0.416c0.06-0.06,0.178-0.179,0.535-0.357c0.594-0.237,1.307-1.425,1.782-1.9     c2.494-2.731,4.988-5.404,7.541-8.076c1.129-1.188,2.969-0.178,3.029,1.247c0,0.475,2.197-2.078,2.316-2.256     c0.475-0.594,0.89-1.069,1.425-1.603c0.535-0.535,1.544-0.772,2.138-0.297c3.207,2.376,3.682,6.176,1.485,9.501     c-1.306,2.019-4.691,3.563-2.731,6.116c1.009,1.306,1.841,1.663,1.959,3.503c0.06,1.009-0.891,1.722-1.781,1.781     c-1.129,0.059-2.494-0.06-3.563,0.238c-0.951-0.238-1.484,0.059-1.663,0.95c-0.653,0.535-0.653,1.128-0.06,1.722     c0.119,1.069,0.771,1.96,0.653,3.147c-0.356,2.612-2.732,4.275-5.226,4.572c-1.484,0.178-3.028-0.179-4.454-0.594     c-0.475-0.119-1.366-0.593-1.603-0.297c-0.238,0.237,0.119,3.087,0.119,3.385c0.119,3.503,0.237,7.126-0.831,10.451     c-0.297,0.831-0.654,1.663-1.069,2.435c-0.475,0.831-1.484,1.425-0.772,2.138c1.484,1.425,3.444-4.395,3.682-5.226     c0.832-3.207,1.069-7.126,3.741-9.441c1.841-1.603,4.631-1.9,6.591-0.238c1.485,1.306,1.604,3.088,2.019,4.869     c0.831-2.375,0-6.175,0.95-8.253c0.416-0.95,1.069-1.722,1.9-2.375c0.95-0.653,2.91-0.832,3.622-1.663     c1.307-1.425,0.178-4.513,3.266-4.275c2.672,0.178,3.385,4.216,3.681,6.176c0.238,1.365,0,3.978,0.772,5.225     c-0.475-1.188,1.069-3.503,1.782-4.513c0.95-1.366,2.197-2.019,3.741-1.128c1.425,0.832,1.069,2.256,2.969,1.425     c1.247-0.594,1.9-2.019,3.028-2.731c1.663-1.069,3.503-1.247,4.81,0.475c3.088,4.216,0.832,11.638-3.8,13.598     c-1.663,0.712-3.503,0.238-5.166,0.772c-1.426,0.475-3.266,1.96-0.891,2.435c0.475,0.119,1.307-0.178,1.782-0.178     c2.315-0.06,3.978,0.831,4.513,3.206c0.475,2.019,0.237,4.691-1.603,5.938c-2.138,1.484-5.345,0.475-7.72,0.297     c-2.435-0.178-4.929-0.297-7.422-0.356c-1.604-0.06-4.513-0.594-6.057,0c-1.188,0.416-1.069,0-0.178,1.01     c0.712,0.832,2.138,1.484,3.146,1.959c3.741,1.841,10.154,0.891,11.876,5.403c0.772,2.138-0.06,4.276-2.138,5.226     c-0.772,0.356-1.722,0.475-2.553,0.475c-0.594,0-1.663-0.356-2.256-0.06c-0.95,0.535-0.594,0.535-0.653,1.782     c-0.06,0.771-0.535,1.543-1.307,1.722c-3.563,0.771-6.235-2.138-8.907-4.157c-0.831-0.653-1.663-1.425-2.613-1.959     c-1.425-0.772-2.494-0.772-4.038-1.069c-0.297-0.06-1.069-0.416-1.782-0.712c0,3.088,3.087,5.107,5.522,6.532     c1.247,0.713,2.316,1.722,2.316,3.266c0,1.366-0.891,2.079-1.959,2.731c-0.356,0.356-0.654,0.356-0.891,0     c0,0.237-0.06,0.475-0.119,0.712c-0.356,0.416-0.356,0.891-0.891,1.307c-2.671,2.078-8.313,0.712-10.748-1.128     c-2.078-1.544-3.8-3.682-5.463-5.642c-0.832-0.95-1.663-1.84-2.138-3.087c-0.356-0.95,0-2.494-0.831-1.544     c-0.832,0.95-0.534,3.267-0.653,4.454c-0.119,1.603-0.179,3.206-0.416,4.75c-0.238,1.781-0.534,3.563-1.603,4.988     c-1.603,2.138-4.988,3.087-6.354,0.237c-1.069-2.138-0.119-4.513-1.604-6.77c-2.257-3.444-3.979-1.722-6.948-0.653     c-5.106,1.9-10.51,2.079-15.795,1.009c-0.593-0.119-1.068-0.653-1.247-1.247c-0.949-3.206-0.771-6.71,2.673-8.017     c0.178-0.118,0.475-0.178,0.771-0.178h0.535c2.079,0.178,9.501,0.95,9.797-0.119c0.654-2.554-8.135-0.772-9.857-0.653     c-4.156,0.356-12.351,1.188-14.786-3.207C621.379,832.007,623.398,828.979,626.664,828.741L626.664,828.741z M626.664,828.741"/>
			</g>
			<path fill="#3B8F47" d="M664.371,844.893c-0.119,1.781,0.296,6.413-1.366,7.72c-0.712,0.534-0.238-0.713-0.356-1.604    c-0.119-1.128-0.475-2.197-0.95-3.266c-1.247-2.85-4.395-6.354-7.838-5.344c-2.672,0.772-4.928,2.316-7.72,2.85    c-3.028,0.594-6.056,0.594-9.085,0.06c-0.119-0.891,0.178-1.782,0.891-2.613c3.385,0.178,7.066,0.713,10.392,0.238    c1.782-0.238,3.385-1.069,3.622-2.969c0.832-5.938-7.363-6.175-10.985-5.641c-3.741,0.593-7.423,0.771-11.164,0.416    c-0.593-0.06-1.188-0.178-1.781-0.238c-0.297-0.772-0.654-1.484-0.951-2.197c0.179-0.178,2.019,0.297,2.435,0.356    c1.9,0.297,3.801,0.832,5.701,1.069c3.86,0.475,9.501-2.731,5.878-7.007c-1.603-1.9-4.097-1.96-6.353-1.841    c-1.722,0.059-3.444,0.238-5.167,0.356c-1.307,0.06-1.543,0.297-2.494-0.712c-1.603-1.543,0.772-0.772,1.9-0.772    c1.781,0,4.038,0.119,4.513-2.078c0.475-2.316-2.02-3.86-3.682-4.75c-2.85-1.425-7.957-2.197-8.907-5.701    c-0.772-2.85,1.307-2.494,3.087-3.266c0.297-0.119,2.969-2.197,2.732-2.257c0.178,0.06,3.325,4.691,3.622,5.107    c0.891,1.484,1.01,4.275,3.444,4.038c1.959-0.237,2.375-2.435,2.375-4.097c0-0.296-0.297-1.841-0.178-1.959    c0.237,0.06,0.534,0.06,0.772,0.119c1.069-0.119,1.425,0.535,0.95,1.9c0.06,1.484-0.059,2.969,0.416,4.394    c1.485,4.216,6.294,4.75,8.611,0.891c0.06-0.06,0.119-0.237,0.237-0.416c0,1.069,0.119,2.138,0.119,2.435    c0.119,3.088,0.594,6.176,1.959,8.967c1.366,2.85,6.176,9.679,9.798,5.878c1.663-1.781,1.959-5.047,2.256-7.304    c0.475-3.622,0.416-7.244,0.297-10.867c-0.119-2.731-0.178-4.394-2.138-6.353c-2.138-2.197-4.513-4.75-7.185-6.235    c-2.554-1.425-5.404-1.247-8.194-1.485c-2.257-0.178-6.651-0.119-5.463-4.275c0.416-1.425,2.079-2.612,2.672-4.097    c1.604-4.097-0.771-9.026-4.988-10.392c-1.781-0.594-3.207-0.119-0.593-0.891c2.434-0.713,3.859-0.06,5.938,1.009    c2.256,1.128,4.869,1.069,6.828-0.594c0.179-0.119,0.951-1.188,1.247-1.307c0.416-0.95,0.832-0.832,1.188,0.297    c0.06,0.297,0.179,0.594,0.238,0.891c0.653,1.841,0.95,3.741,1.722,5.522c0.89,2.138,2.435,6.176,5.106,6.651    c2.138,0.356,3.741-1.544,4.157-3.444c0.713-3.088-1.306-5.463-2.553-8.076c-1.485-3.207-1.722-6.829-3.504-9.917    c-1.128-2.019-2.672-3.088-2.91-5.642c-0.119-1.069-0.119-2.197-0.119-3.325c2.851,1.603,6.354,1.841,7.245-2.316    c0.297-1.247,0-2.553,0.297-3.8c0.416-1.485,1.425-2.375,2.435-3.503c0,0.653,0,1.306-0.06,2.019    c-0.059,1.129-0.118,2.079,0.475,3.029c0.891,1.485,2.494,2.256,4.157,1.544c2.494-1.069,4.87-4.632,6.77-6.532    c2.257-2.375,4.513-4.75,6.71-7.126c1.307,3.504-1.9,7.126-3.978,9.798c-1.128,1.484-2.316,3.563-1.307,5.463    c0.475,0.891,1.307,0.95,1.9,1.543c1.722,1.722,0.712,3.682-0.119,5.701c-1.603,3.919-4.097,6.888-6.71,10.154    c-3.503,4.394-0.95,9.738,3.741,12.113c2.257,1.128,3.504,0,5.107-1.663c2.435-2.553,4.81-5.166,7.245-7.778    c0.653,0.475,1.425,0.771,2.375,0.712c2.257-0.119,3.504-1.959,4.75-3.622c1.307,2.85-4.513,6.531-5.047,9.145    c-0.238,1.068-0.06,2.078,0.475,3.028c0.178,0.297,0.534,0.653,1.009,0.95c-2.435,0.06-5.047,0.416-5.997,2.494    c-0.535,1.128-0.356,2.435,0,3.622c0.178,0.713,1.188,1.9,1.128,2.553c-0.178,2.316-3.206,1.9-4.632,1.603    c-2.434-0.474-5.463-1.84-6.472,1.485c-0.535,1.663-0.06,3.8,0,5.463c0.118,2.435,0.178,4.988-0.298,7.363    c-0.653,2.969-4.69,6.591-2.791,9.739c1.603,2.612,5.107,1.663,7.066,0.178c3.147-2.435,3.8-6.354,4.632-9.976    c0.237-1.068,0.416-3.028,1.188-3.741c1.01-0.297,1.959-0.653,2.969-0.95c0.179,0.475,0.356,0.95,0.416,1.425    c0.416,1.722,0.535,3.207,1.425,4.691c0.534,0.891,1.543,1.069,2.435,0.653c4.453-2.019,2.91-6.413,3.563-10.213    c0.594-3.147,3.028-2.732,4.988-4.335c0.475-0.416,0.891-0.832,1.129-1.366c0.593,2.613,0.178,6.592,1.425,8.135    c1.841,2.257,4.216,0.297,5.641-1.366c0.534-0.653,1.009-1.425,1.425-2.197c0-0.059,0.06-0.118,0.06-0.178l0.178,0.178    c0.356,0.416,0.95,0.772,1.484,0.95c3.682,1.306,5.047-2.435,7.601-3.682c0.891,1.722,0.416,4.751-0.475,6.116    c-1.128,1.781-2.91,1.96-4.869,2.138c-1.9,0.178-3.682,0.238-5.345,1.485c-2.315,1.781-2.91,5.225-0.297,7.066    c1.307,0.95,2.732,0.831,4.276,1.068c0.475,0,0.891-0.06,1.366-0.119c1.484,0.713,1.484,1.663,0.118,2.791    c-0.593,0.297-2.969-0.297-3.563-0.356c-3.147-0.297-6.294-0.476-9.441-0.535c-2.197-0.06-4.87-0.416-7.007,0.178    c-2.315,0.653-3.503,3.028-2.375,5.285c1.188,2.375,4.157,3.741,6.414,4.691c1.128,0.475,2.315,0.95,3.503,1.247    c0.653,0.118,1.307,0.178,1.96,0.237c1.543-0.416,2.256,0.06,2.078,1.307c0.534,1.307,0,1.603-1.604,0.832    c-3.682-0.356-4.394,1.068-4.631,3.681c-1.9-0.653-4.335-3.206-5.522-4.097c-1.9-1.425-3.623-2.672-5.998-3.028    c-2.256-0.356-5.76-2.672-6.947,0.653c-1.128,3.147,1.009,7.304,3.207,9.441c0.653,0.653,1.603,1.366,2.434,1.722    c0.297,0.118,0.594,0.296,0.891,0.416c0.653,0.178,1.128-0.475,0.771,0.06c-0.178,0.237-1.188,0.475-1.484,0.712    c-0.416,0.356-0.594,1.069-0.951,1.425c-0.416,0.356-0.653,0.356-1.722,0.297c-1.781-0.119-3.385-0.297-4.81-1.485    c-1.841-1.603-3.86-3.682-5.285-5.641c-1.604-2.256-1.306-7.601-5.701-6.116C664.133,836.876,664.608,841.923,664.371,844.893    L664.371,844.893z M664.371,844.893"/>
		</g>
		<g id="tree5">
			<path fill="#942C2E" d="M2547.4,1809.588c-1.978,0-2.967-1.404-3.683-2.437c-0.73-1.046-1.104-1.461-1.819-1.461    c-0.717,0-1.075,0.43-1.82,1.461c-0.73,1.032-1.72,2.437-3.682,2.437c-1.963,0-2.967-1.404-3.683-2.437    c-0.73-1.046-1.104-1.461-1.82-1.461c-0.716,0-1.074,0.43-1.819,1.461c-0.73,1.032-1.719,2.437-3.682,2.437    c-1.978,0-2.966-1.404-3.683-2.437c-0.731-1.046-1.103-1.461-1.819-1.461c-0.631,0-1.146-0.516-1.146-1.146    c0-0.631,0.516-1.146,1.146-1.146c1.977,0,2.966,1.404,3.682,2.436c0.731,1.046,1.104,1.461,1.82,1.461    c0.716,0,1.074-0.43,1.819-1.461c0.731-1.031,1.72-2.436,3.682-2.436c1.979,0,2.967,1.404,3.683,2.436    c0.73,1.046,1.104,1.461,1.82,1.461s1.074-0.43,1.819-1.461c0.73-1.031,1.72-2.436,3.683-2.436s2.965,1.404,3.682,2.436    c0.731,1.046,1.104,1.461,1.82,1.461c0.63,0,1.146,0.517,1.146,1.146C2548.547,1809.072,2548.03,1809.588,2547.4,1809.588    L2547.4,1809.588z M2547.4,1802.424c-1.978,0-2.967-1.404-3.683-2.436c-0.73-1.047-1.104-1.462-1.819-1.462    c-0.717,0-1.075,0.431-1.82,1.462c-0.73,1.031-1.72,2.436-3.682,2.436c-1.963,0-2.967-1.404-3.683-2.436    c-0.73-1.047-1.104-1.462-1.82-1.462c-0.716,0-1.074,0.431-1.819,1.462c-0.73,1.031-1.719,2.436-3.682,2.436    c-1.978,0-2.966-1.404-3.683-2.436c-0.731-1.047-1.103-1.462-1.819-1.462c-0.631,0-1.146-0.516-1.146-1.146    c0-0.631,0.516-1.146,1.146-1.146c1.977,0,2.966,1.404,3.682,2.436c0.731,1.046,1.104,1.461,1.82,1.461    c0.716,0,1.074-0.43,1.819-1.461c0.731-1.031,1.72-2.436,3.682-2.436c1.979,0,2.967,1.404,3.683,2.436    c0.73,1.046,1.104,1.461,1.82,1.461s1.074-0.43,1.819-1.461c0.73-1.031,1.72-2.436,3.683-2.436s2.965,1.404,3.682,2.436    c0.731,1.046,1.104,1.461,1.82,1.461c0.63,0,1.146,0.517,1.146,1.146C2548.547,1801.908,2548.03,1802.424,2547.4,1802.424    L2547.4,1802.424z M2547.4,1802.424"/>
			<path fill="#F5E354" d="M2455.558,1723.662c0,2.533,2.053,4.586,4.585,4.586s4.585-2.053,4.585-4.586    c0-2.531-2.053-4.584-4.585-4.584S2455.558,1721.131,2455.558,1723.662L2455.558,1723.662z M2455.558,1723.662"/>
			<path fill="#942C2E" d="M2543.718,1846.311h-118.063c-0.63,0-1.146-0.516-1.146-1.146c0-0.63,0.517-1.146,1.146-1.146h118.063    c0.63,0,1.146,0.517,1.146,1.146C2544.863,1845.795,2544.348,1846.311,2543.718,1846.311L2543.718,1846.311z M2543.718,1846.311"/>
			<path fill="#F4D5E6" d="M2481.276,1747.719l3.267,0.302l-5.344,97.144h-10.732L2481.276,1747.719z M2481.276,1747.719"/>
			<path fill="#F3A7BC" d="M2482.695,1751.688l0.931-8.225c0,0-24.243-5.702-36.479-0.702c-9.543,3.897-13.053,12.81-13.097,20.891    C2434.051,1764.813,2442.691,1740.498,2482.695,1751.688L2482.695,1751.688z M2482.695,1751.688"/>
			<path fill="#F5E354" d="M2483.01,1748.407l0.702-5.674c0,0-12.638-16.005-26.864-14.7c-12.064,1.117-16.851,8.009-19.716,13.053    C2435.656,1743.693,2458.738,1725.712,2483.01,1748.407L2483.01,1748.407z M2483.01,1748.407"/>
			<path fill="#D9E2F3" d="M2483.024,1751.674l-0.358-8.267c0,0,22.452-4.814,35.304,2.664c10.604,6.176,13.254,12.896,12.738,20.948    C2530.637,1768.18,2523.143,1745.04,2483.024,1751.674L2483.024,1751.674z M2483.024,1751.674"/>
			<path fill="#ACD8BE" d="M2482.952,1748.378l-0.301-5.702c0,0,14.042-13.74,28.241-12.279c11.807,1.219,15.832,8.684,18.34,13.913    C2530.521,1747.003,2508.758,1727.445,2482.952,1748.378L2482.952,1748.378z M2482.952,1748.378"/>
			<path fill="#ACD8BE" d="M2503.398,1834.848c0,3.799,3.079,6.878,6.878,6.878c3.798,0,6.877-3.079,6.877-6.878    c0-3.798-3.079-6.877-6.877-6.877C2506.478,1827.971,2503.398,1831.05,2503.398,1834.848L2503.398,1834.848z M2503.398,1834.848"/>
			<path fill="#E9D1E5" d="M2521.165,1845.164h-13.754v-2.292c0-3.783,3.094-6.878,6.877-6.878c3.782,0,6.877,3.095,6.877,6.878    V1845.164z M2521.165,1845.164"/>
			<path fill="#F3A7BC" d="M2511.709,1845.107h-18.34v-4.586c0-5.043,4.127-9.17,9.17-9.17s9.17,4.127,9.17,9.17V1845.107z     M2511.709,1845.107"/>
			<path fill="#942C2E" d="M2518.229,1835.894c0.043-0.343,0.071-0.688,0.071-1.046c0-4.427-3.597-8.023-8.023-8.023    c-2.723,0-5.13,1.361-6.577,3.439c-0.372-0.044-0.759-0.072-1.16-0.072c-5.688,0-10.316,4.628-10.316,10.316v4.584    c0,0.632,0.516,1.147,1.146,1.147h13.669c0.114,0.042,0.243,0.058,0.373,0.058h13.754c0.631,0,1.146-0.516,1.146-1.147v-2.292    C2522.312,1839.877,2520.664,1837.27,2518.229,1835.894L2518.229,1835.894z M2510.276,1829.117c3.167,0,5.731,2.564,5.731,5.73    v0.188c-0.559-0.115-1.132-0.188-1.72-0.188c-0.989,0-1.948,0.188-2.822,0.517c-1.189-2.049-3.066-3.654-5.302-4.499    C2507.21,1829.791,2508.672,1829.117,2510.276,1829.117L2510.276,1829.117z M2506.264,1843.961h-11.748v-3.439    c0-4.427,3.596-8.022,8.023-8.022h0.072c0.802,0,1.576,0.128,2.307,0.357c1.934,0.603,3.553,1.905,4.556,3.611    c0.401,0.688,0.702,1.446,0.889,2.234c0.129,0.588,0.215,1.189,0.215,1.806v3.438h-4.313V1843.961z M2520.02,1844.018h-7.164    v-3.496c0-0.186,0-0.372-0.014-0.544c-0.044-0.874-0.201-1.705-0.445-2.507c0.588-0.216,1.232-0.33,1.892-0.33    c0.401,0,0.802,0.043,1.189,0.129c0.773,0.158,1.476,0.473,2.105,0.917c1.477,1.032,2.451,2.751,2.451,4.686v1.146H2520.02z     M2520.02,1844.018"/>
			<g>
				<defs>
					<rect id="SVGID_41_" x="2420.16" y="1717.917" width="128.394" height="128.565"/>
				</defs>
				<clipPath id="SVGID_42_">
					<use xmlns:xlink="http://www.w3.org/1999/xlink" xlink:href="#SVGID_41_" overflow="visible"/>
				</clipPath>
				<path clip-path="url(#SVGID_42_)" fill="#FFFFFF" d="M2456.947,1729.179c-3.883,0.358-7.192,1.333-10.029,2.98     c1.132,0.015,2.379-0.1,3.754-0.401c2.966-0.645,5.015,2.794,9.471,3.152c5.302,0.416,6.361-1.935,11.376,0.645     c1.72,0.874,3.066,1.061,4.142,0.846c-0.259-0.215-0.516-0.416-0.788-0.631     C2470.545,1732.418,2463.91,1728.534,2456.947,1729.179L2456.947,1729.179z M2492.08,1736.944     c-1.663,1.019-3.139,2.064-4.398,3.009c2.307,0.029,5.086-0.586,7.407-2.55c6.304-5.315,11.175-1.905,13.181-3.625     c0.588-0.501,1.204-1.347,1.791-2.278C2503.299,1731.042,2496.579,1734.18,2492.08,1736.944L2492.08,1736.944z M2492.08,1736.944     "/>
				<path clip-path="url(#SVGID_42_)" fill="#942C2E" d="M2529.361,1755.586c-2.106-3.797-5.703-7.136-10.961-10.202     c-4.643-2.708-10.875-4.155-18.584-4.341c3.554-0.889,7.179-1.204,10.832-0.932c7.608,0.573,13.383,3.567,16.148,4.986     c0.544,0.272,0.974,0.501,1.304,0.645c0.343,0.157,1.175,0.516,1.805-0.1c0.158-0.144,0.616-0.688,0.201-1.548     c-1.347-2.794-3.009-6.019-5.917-8.798c-3.468-3.31-7.824-5.201-13.326-5.76c-6.061-0.631-13.038,1.361-20.173,5.746     c-3.354,2.063-5.989,4.184-7.522,5.502c-1.391-1.548-3.826-4.056-7.007-6.52c-4.126-3.21-8.267-5.359-12.279-6.419     c1.132-1.046,1.834-2.536,1.834-4.198c0-3.166-2.564-5.731-5.731-5.731c-3.166,0-5.73,2.565-5.73,5.731     c0,1.375,0.486,2.637,1.304,3.64c-3.969,0.487-7.466,1.662-10.46,3.481c-0.486-0.286-1.074-0.473-1.805-0.473     c-1.978,0-2.967,1.404-3.683,2.436c-0.73,1.046-1.104,1.461-1.819,1.461c-0.717,0-1.075-0.43-1.82-1.461     c-0.73-1.031-1.719-2.436-3.682-2.436s-2.966,1.404-3.682,2.436c-0.731,1.046-1.104,1.461-1.82,1.461s-1.074-0.43-1.819-1.461     c-0.731-1.031-1.72-2.436-3.683-2.436c-0.631,0-1.146,0.516-1.146,1.146c0,0.63,0.516,1.146,1.146,1.146     c0.716,0,1.074,0.43,1.819,1.461c0.731,1.031,1.72,2.436,3.683,2.436s2.966-1.404,3.682-2.436     c0.731-1.047,1.104-1.461,1.82-1.461s1.074,0.43,1.819,1.461c0.73,1.031,1.72,2.436,3.683,2.436c0.43,0,0.802-0.071,1.132-0.186     c-1.189,1.532-2.149,3.066-2.952,4.499c-0.085,0.143-0.143,0.286-0.172,0.415c-0.473-0.057-0.788-0.487-1.361-1.404     c-0.658-1.046-1.561-2.493-3.409-2.493s-2.751,1.447-3.41,2.493c-0.616,0.989-0.932,1.418-1.461,1.418     c-0.53,0-0.847-0.429-1.462-1.418c-0.659-1.046-1.563-2.493-3.41-2.493c-0.631,0-1.146,0.516-1.146,1.146     c0,0.63,0.516,1.146,1.146,1.146c0.529,0,0.846,0.43,1.461,1.418c0.659,1.046,1.563,2.493,3.411,2.493     c1.848,0,2.751-1.447,3.409-2.493c0.616-0.988,0.932-1.418,1.462-1.418s0.845,0.43,1.462,1.418     c0.658,1.046,1.561,2.493,3.409,2.493c1.075,0,1.819-0.473,2.393-1.089c0.259-0.101,0.56-0.229,0.902-0.387     c2.866-1.232,8.841-3.797,16.464-3.84h0.2c3.84,0,7.594,0.645,11.247,1.934c-8.883-0.702-15.789-0.071-20.546,1.863     c-4.686,1.905-8.268,5.072-10.674,9.385c-2.021,3.625-3.11,7.966-3.139,12.552c0,0.544,0.345,1.017,0.86,1.146     c0.114,0.028,0.229,0.044,0.344,0.044c0.659,0,1.002-0.588,1.261-1.047c2.594-4.441,6.29-7.908,10.989-10.273     c4.055-2.049,8.77-3.252,14.056-3.567c5.731-0.344,12.165,0.358,19.157,2.077l-12.223,92.545     c-0.043,0.33,0.058,0.659,0.272,0.902c0.216,0.244,0.53,0.388,0.86,0.388h10.731c0.602,0,1.117-0.474,1.146-1.089l5.116-92.33     c13.712-1.948,24.901-0.53,33.313,4.227c6.877,3.897,9.671,8.826,10.588,10.445c0.286,0.502,0.63,1.104,1.289,1.104     c0.086,0,0.187-0.015,0.287-0.029c0.501-0.114,0.874-0.559,0.902-1.089C2532.012,1762.75,2531.267,1758.995,2529.361,1755.586     L2529.361,1755.586z M2459.999,1720.224c1.892,0,3.439,1.548,3.439,3.438c0,1.893-1.548,3.439-3.439,3.439     s-3.438-1.547-3.438-3.439C2456.561,1721.771,2458.094,1720.224,2459.999,1720.224L2459.999,1720.224z M2455.888,1735.913h-0.216     c-7.121,0.043-12.823,2.135-16.147,3.511c1.175-1.763,2.65-3.567,4.6-5.158c3.382-2.751,7.536-4.327,12.694-4.8     c6.963-0.646,13.583,3.224,17.91,6.591c2.895,2.249,5.188,4.57,6.548,6.061c0.086,0.086,0.243,0.272,0.243,0.272v3.582     c-0.014-0.015-0.028-0.015-0.043-0.028c-0.788-0.659-1.576-1.29-2.378-1.892c-1.548-1.16-3.123-2.192-4.714-3.095     C2468.51,1737.604,2462.335,1735.913,2455.888,1735.913L2455.888,1735.913z M2445.17,1751.774     c-3.897,1.977-7.164,4.643-9.758,7.952c0.445-2.622,1.275-5.059,2.479-7.221c2.149-3.841,5.358-6.663,9.542-8.383     c3.567-1.461,8.238-1.963,13.038-1.963c4.571,0,9.242,0.459,13.153,1.003c2.178,1.275,4.313,2.794,6.404,4.556     c0.53,0.445,1.061,0.918,1.576,1.391l-0.043,1.418c-0.63-0.171-1.246-0.314-1.862-0.473     C2465.773,1746.645,2454.168,1747.219,2445.17,1751.774L2445.17,1751.774z M2477.967,1843.875h-8.339l12.021-90.954     c0.201,0.058,0.401,0.101,0.603,0.157c0.172,0.043,0.343,0.058,0.516,0.014h0.229L2477.967,1843.875z M2484.629,1742.591     c0,0,0.401-0.345,0.631-0.53c1.518-1.275,3.854-3.081,6.691-4.829c4.656-2.865,11.691-6.118,18.684-5.401     c9.141,0.945,13.324,5.674,16.09,10.659c-3.209-1.604-8.755-4.112-15.89-4.656c-6.29-0.487-12.437,0.659-18.397,3.41     c-1.762,0.817-3.51,1.763-5.229,2.852c-0.945,0.602-1.877,1.231-2.808,1.905c-0.016,0.015-0.029,0.015-0.044,0.029     L2484.629,1742.591z M2519.747,1754.984c-6.319-3.582-14.085-5.373-23.168-5.373c-3.511,0-7.236,0.271-11.147,0.802l-1.462,0.215     l0.058-1.476c0.487-0.387,0.988-0.774,1.476-1.132c2.464-1.806,4.958-3.31,7.494-4.514c7.436-0.501,17.351-0.171,24.257,3.854     c4.9,2.852,8.21,5.903,10.115,9.342c1.132,2.035,1.791,4.227,2.021,6.72C2527.627,1761.016,2524.647,1757.749,2519.747,1754.984     L2519.747,1754.984z M2519.747,1754.984"/>
			</g>
			<path fill="#D9E2F3" d="M2487.796,1771.689l2.278,0.188l-3.754,73.215h-7.522L2487.796,1771.689z M2487.796,1771.689"/>
			<path fill="#F3A7BC" d="M2488.77,1774.742l0.659-5.76c0,0-16.979-3.983-25.561-0.487c-6.678,2.723-9.142,8.97-9.185,14.614    C2454.684,1783.926,2460.744,1766.904,2488.77,1774.742L2488.77,1774.742z M2488.77,1774.742"/>
			<path fill="#F5E354" d="M2488.984,1772.436l0.488-3.97c0,0-8.855-11.204-18.828-10.286c-8.453,0.773-11.807,5.616-13.813,9.141    C2455.801,1769.14,2471.978,1756.546,2488.984,1772.436L2488.984,1772.436z M2488.984,1772.436"/>
			<path fill="#D9E2F3" d="M2488.999,1774.728l-0.243-5.788c0,0,15.732-3.382,24.744,1.862c7.437,4.327,9.285,9.026,8.927,14.672    C2522.369,1786.276,2517.111,1770.071,2488.999,1774.728L2488.999,1774.728z M2488.999,1774.728"/>
			<path fill="#ACD8BE" d="M2488.941,1772.421l-0.215-3.997c0,0,9.829-9.614,19.787-8.597c8.268,0.859,11.09,6.075,12.853,9.742    C2522.283,1771.446,2507.023,1757.764,2488.941,1772.421L2488.941,1772.421z M2488.941,1772.421"/>
			<path fill="#942C2E" d="M2521.882,1777.092c-1.505-2.723-4.069-5.101-7.809-7.278c-3.022-1.762-6.734-2.608-10.359-2.938    c7.551-0.974,13.397,2.034,15.919,3.339c0.387,0.2,0.688,0.357,0.931,0.458c0.258,0.114,1.032,0.459,1.648-0.143    c0.301-0.302,0.516-0.846,0.215-1.49c-0.946-1.992-2.149-4.27-4.228-6.248c-2.449-2.335-5.659-3.725-9.543-4.126    c-4.326-0.444-9.284,0.96-14.342,4.069c-2.191,1.347-3.955,2.723-5.057,3.668c-1.019-1.104-2.651-2.751-4.729-4.356    c-4.758-3.695-9.586-5.444-13.955-5.043c-9.687,0.889-13.211,7.078-14.716,9.715c-0.358,0.616-0.172,1.175,0.101,1.49    c0.572,0.63,1.361,0.344,1.633,0.257c0.244-0.085,0.559-0.229,0.96-0.4c2.637-1.132,8.77-3.769,16.32-2.178    c-4.099-0.115-8.268,0.215-11.42,1.504c-3.353,1.376-5.932,3.625-7.651,6.721c-1.447,2.593-2.221,5.688-2.249,8.955    c0,0.544,0.344,1.002,0.846,1.146c0.114,0.028,0.229,0.043,0.343,0.043c0.646,0,0.975-0.573,1.176-0.902    c1.791-3.052,4.327-5.431,7.564-7.063c5.847-2.967,13.497-3.325,22.739-1.089l-8.54,69.705c-0.043,0.329,0.059,0.659,0.272,0.902    c0.215,0.244,0.53,0.387,0.86,0.387h7.521c0.616,0,1.117-0.472,1.146-1.088l3.568-69.577c9.398-1.29,17.078-0.301,22.853,2.951    c4.742,2.68,6.662,6.062,7.292,7.179c0.201,0.357,0.531,0.945,1.205,0.945c0.086,0,0.186-0.014,0.285-0.028    c0.502-0.115,0.86-0.545,0.903-1.075C2523.773,1782.236,2523.229,1779.542,2521.882,1777.092L2521.882,1777.092z     M2508.413,1760.973c5.646,0.588,8.525,3.281,10.432,6.319c-2.336-1.104-5.875-2.465-10.23-2.795    c-4.427-0.343-8.769,0.459-12.981,2.379c-1.719,0.788-3.41,1.763-5.086,2.909c-0.029,0.014-0.043,0.028-0.072,0.043l-0.014,0.015    c0,0,0.1-1.104,0.143-1.563c0.344-0.286,0.76-0.645,1.246-1.018C2495.246,1764.598,2501.865,1760.3,2508.413,1760.973    L2508.413,1760.973z M2470.086,1763.15h-0.157c-4.341,0.029-7.938,1.118-10.359,2.049c0.688-0.902,1.49-1.791,2.479-2.593    c2.321-1.892,5.158-2.966,8.712-3.281c6.777-0.63,13.167,4.929,16.119,7.967c0.286,0.3,0.544,0.559,0.759,0.802    c0.015,0.56,0.015,1.677,0.015,1.677c-1.477-1.189-2.98-2.221-4.514-3.096C2478.998,1764.326,2474.628,1763.15,2470.086,1763.15    L2470.086,1763.15z M2462.42,1774.283c-2.349,1.189-4.369,2.723-6.061,4.6c0.831-3.324,2.909-7.278,7.938-9.327    c2.464-1.003,5.688-1.361,8.998-1.361c3.151,0,6.39,0.315,9.099,0.688c1.389,0.817,2.793,1.806,4.212,2.98    c0.387,0.315,0.774,0.659,1.161,1.003l0.014,0.372v0.029c-0.444-0.115-0.874-0.215-1.305-0.315    C2476.806,1770.658,2468.726,1771.104,2462.42,1774.283L2462.42,1774.283z M2485.231,1843.946h-5.13l8.339-68.115h0.028    c0.086,0.028,0.172,0.028,0.244,0.043L2485.231,1843.946z M2515.004,1776.533c-4.484-2.536-9.972-3.797-16.405-3.797    c-2.364,0-4.843,0.172-7.45,0.516c-0.344,0.043-0.702,0.101-1.061,0.144l0.043-0.444c0.358-0.287,0.717-0.559,1.075-0.816    c1.69-1.232,3.353-2.221,4.972-2.995c5.144-0.344,11.992-0.1,16.734,2.651c3.382,1.977,5.66,4.068,6.964,6.419    c0.573,1.031,0.975,2.12,1.204,3.31C2519.775,1779.972,2517.842,1778.138,2515.004,1776.533L2515.004,1776.533z     M2515.004,1776.533"/>
		</g>
		<g id="tree6">
			<g>
				<defs>
					<rect id="SVGID_45_" x="213.262" y="1058.873" width="120.616" height="107.81"/>
				</defs>
				<clipPath id="SVGID_46_">
					<use xmlns:xlink="http://www.w3.org/1999/xlink" xlink:href="#SVGID_45_" overflow="visible"/>
				</clipPath>
				<path clip-path="url(#SVGID_46_)" fill="#76A56D" d="M332.129,1124.8l-28.165-13.008h2.444c5.983,0,9.723-4.578,6.731-8.245     l-16.309-11.146c4.195-0.037,6.822-4.597,4.707-8.245l-23.313-22.493c-2.116-3.666-7.406-3.666-9.522,0l-23.295,22.493     c-2.116,3.648,0.51,8.208,4.707,8.245l-16.308,11.146c-2.992,3.667,0.747,8.245,6.731,8.245h2.444l-28.166,13.008     c-4.415,3.666,1.112,8.245,9.941,8.245h44.019v28.713c0,2.59,2.115,4.706,4.707,4.706c2.59,0,4.706-2.116,4.706-4.706v-28.713     h44.019C331.035,1133.045,336.562,1128.466,332.129,1124.8L332.129,1124.8z M253.962,1118.762c-0.237,0-0.419-0.184-0.419-0.42     c0-0.238,0.183-0.42,0.419-0.42s0.419,0.182,0.419,0.42C254.381,1118.56,254.199,1118.762,253.962,1118.762L253.962,1118.762z      M259.125,1083.354c0-0.365,0.31-0.676,0.675-0.676c0.364,0,0.674,0.311,0.674,0.676s-0.31,0.675-0.674,0.675     C259.435,1084.028,259.125,1083.719,259.125,1083.354L259.125,1083.354z M260.657,1091.781c-0.474,0-0.857-0.383-0.857-0.857     s0.383-0.857,0.857-0.857c0.475,0,0.857,0.383,0.857,0.857S261.131,1091.781,260.657,1091.781L260.657,1091.781z      M270.599,1077.498c-0.402,0-0.73-0.329-0.73-0.729c0-0.402,0.329-0.729,0.73-0.729c0.401,0,0.729,0.328,0.729,0.729     C271.328,1077.169,271,1077.498,270.599,1077.498L270.599,1077.498z M278.169,1106.813c-0.693,0-1.258-0.566-1.258-1.259     c0-0.693,0.565-1.259,1.258-1.259c0.693,0,1.259,0.565,1.259,1.259C279.428,1106.246,278.862,1106.813,278.169,1106.813     L278.169,1106.813z M286.798,1107.36c-0.146,0-0.274-0.129-0.274-0.273c0-0.146,0.127-0.274,0.274-0.274     c0.146,0,0.273,0.128,0.273,0.274C287.071,1107.231,286.961,1107.36,286.798,1107.36L286.798,1107.36z M290.92,1083.354     c-0.182,0-0.328-0.146-0.328-0.329c0-0.182,0.146-0.327,0.328-0.327c0.183,0,0.329,0.146,0.329,0.327     C291.267,1083.207,291.103,1083.354,290.92,1083.354L290.92,1083.354z M290.92,1083.354"/>
			</g>
			<path fill="#FFFFFF" d="M269.869,1076.768c0,0.403,0.327,0.729,0.73,0.729c0.402,0,0.729-0.327,0.729-0.729    c0-0.403-0.327-0.729-0.729-0.729C270.195,1076.039,269.869,1076.365,269.869,1076.768L269.869,1076.768z M269.869,1076.768"/>
			<path fill="#FFFFFF" d="M259.125,1083.354c0,0.241,0.128,0.464,0.337,0.584c0.208,0.121,0.466,0.121,0.674,0    c0.209-0.12,0.338-0.343,0.338-0.584c0-0.242-0.128-0.464-0.338-0.585c-0.208-0.121-0.466-0.121-0.674,0    C259.253,1082.89,259.125,1083.111,259.125,1083.354L259.125,1083.354z M259.125,1083.354"/>
			<path fill="#FFFFFF" d="M259.8,1090.924c0,0.307,0.163,0.59,0.428,0.742c0.266,0.153,0.592,0.153,0.857,0    c0.265-0.152,0.429-0.436,0.429-0.742s-0.164-0.589-0.429-0.742s-0.592-0.153-0.857,0    C259.963,1090.335,259.8,1090.617,259.8,1090.924L259.8,1090.924z M259.8,1090.924"/>
			<path fill="#FFFFFF" d="M276.911,1105.572c0,0.45,0.24,0.865,0.629,1.09c0.39,0.225,0.869,0.225,1.258,0    c0.39-0.225,0.63-0.64,0.63-1.09s-0.24-0.865-0.63-1.09c-0.389-0.226-0.868-0.226-1.258,0    C277.15,1104.707,276.911,1105.122,276.911,1105.572L276.911,1105.572z M276.911,1105.572"/>
			<path fill="#FFFFFF" d="M286.524,1107.087c0,0.15,0.122,0.273,0.274,0.273c0.151,0,0.273-0.123,0.273-0.273    c0-0.151-0.122-0.274-0.273-0.274C286.646,1106.813,286.524,1106.936,286.524,1107.087L286.524,1107.087z M286.524,1107.087"/>
			<path fill="#FFFFFF" d="M253.542,1118.342c0,0.231,0.188,0.42,0.419,0.42s0.419-0.188,0.419-0.42s-0.188-0.42-0.419-0.42    S253.542,1118.11,253.542,1118.342L253.542,1118.342z M253.542,1118.342"/>
			<path fill="#FFFFFF" d="M290.592,1083.024c0,0.182,0.147,0.329,0.328,0.329c0.182,0,0.329-0.147,0.329-0.329    c0-0.181-0.147-0.327-0.329-0.327C290.739,1082.697,290.592,1082.844,290.592,1083.024L290.592,1083.024z M290.592,1083.024"/>
		</g>
		<g id="car">
			<path fill="#E29618" d="M1265.158,1376.254h39.937c0,6.979,5.658,12.638,12.637,12.638c6.979,0,12.637-5.658,12.637-12.638h4.292    c1.117,0,2.188-0.443,2.979-1.233s1.234-1.861,1.234-2.979v-26.521c0-1.92-0.656-3.782-1.858-5.278l-12.542-15.603    c-1.601-1.99-4.016-3.146-6.569-3.146h-16.942c-1.117,0-2.188,0.443-2.979,1.233s-1.234,1.862-1.234,2.979v42.124h-8.424v-58.973    c0-4.652-3.772-8.425-8.425-8.425h-54.761c-4.652,0-8.424,3.772-8.424,8.425v58.973c0,4.652,3.772,8.424,8.424,8.424h14.744    c0,4.516,2.409,8.688,6.318,10.944s8.727,2.257,12.637,0S1265.158,1380.77,1265.158,1376.254L1265.158,1376.254z     M1317.812,1380.467c-1.504,0-2.896-0.803-3.648-2.106c-0.753-1.303-0.753-2.909,0-4.212c0.752-1.304,2.144-2.106,3.648-2.106    c2.327,0,4.212,1.886,4.212,4.212C1322.024,1378.581,1320.139,1380.467,1317.812,1380.467L1317.812,1380.467z M1308.09,1334.131    c0-1.163,0.943-2.105,2.106-2.105h6.85c0.625,0,1.217,0.277,1.618,0.758l8.38,10.062c0.316,0.379,0.489,0.854,0.489,1.348v2.576    c0,1.163-0.943,2.105-2.106,2.105h-15.23c-1.163,0-2.106-0.942-2.106-2.105V1334.131z M1252.521,1380.467    c-1.504,0-2.895-0.803-3.647-2.106c-0.752-1.303-0.752-2.909,0-4.212c0.752-1.304,2.143-2.106,3.647-2.106    c2.327,0,4.213,1.886,4.213,4.212C1256.733,1378.581,1254.848,1380.467,1252.521,1380.467L1252.521,1380.467z M1252.521,1380.467"/>
			<path fill="#E29618" d="M1336.726,1388.892h-113.733c-2.317,0-4.212,1.896-4.212,4.212v4.213c0,2.316,1.896,4.212,4.212,4.212    h113.733c2.316,0,4.212-1.896,4.212-4.212v-4.213C1340.938,1390.787,1339.042,1388.892,1336.726,1388.892L1336.726,1388.892z     M1336.726,1388.892"/>
		</g>
	 </defs>

	<use xlink:href="#bg"></use>


<g xmlns="http://www.w3.org/2000/svg" id="rivers">
	<path fill="#00A29A" d="M2463,1309.25l63,10.75l94.556,9.25L2785,1368.334L2941,1414c0,0,87.612,21.555,115.333,33   c27.967,11.547,78.115,46.636,105.952,58.491c14.803,6.305,46.397,13.438,61.471,19.068c20.662,7.718,60.624,26.517,80.766,35.507   c101.124,45.138,299.293,145.277,403.477,182.819c32.18,11.596,104.818,56.766,132.002,36.004c8.609-6.575,6.523-34.684,0-43.332   c-9.864-13.077-47.605-12.409-63.002-17.999c-38.186-13.863-111.184-49.921-148.492-65.997   c-38.438-16.563-115.872-48.365-154.492-64.496c-40.126-16.76-120.644-49.655-160.492-67.064   c-28.703-12.54-84.385-41.783-113.994-52.001c-14.867-5.13-46.313-9.55-61.156-14.748c-22.743-7.964-65.146-31.387-87.333-40.791   c-20.029-8.49-81.288-31.053-81.288-31.053L2828,1344l-82-25l-99-27l-96-14l-105-20l-136-12l-202-35l-192.167-27L1728,1087.59   L1512,984l-75.695-42.375c0,0-29.129-13.158-40.638-19.958c-10.893-6.435-34.317-31.496-42.667-41   c-16.288-18.54-35.465-68.92-49.333-89.333c-12.724-18.73-42.667-45.357-54.667-66.027c-12.89-22.202-50.342-53.795-70-70.307   c-19.189-16.118-61.434-43.682-82-58c-21.231-14.781-61.747-47.873-78-68c-27.277-33.778-63.693-113.625-84-152   c-21.231-40.122-65.324-119.781-82-162c-9.185-23.252-20.697-72.09-28-96c-9.123-29.868-12.781-100.58-38-119   c-10.498-7.668-43.718-10.021-52-0.001C723.162,14.323,744.045,55.09,749,73c7.381,26.679,27.346,78.451,38,104   c7.231,17.341,24.4,50.817,32,68c8.977,20.295,23.813,62.284,34,82c11.653,22.555,42.584,63.324,54,86   c9.895,19.656,21.035,62.92,32,82c10.817,18.821,42.47,49.606,54,68c10.839,17.292,27.026,56.134,42,70   c9.023,8.356,32.902,16.7,44,22c18.188,8.686,54.168,27.526,70,40c13.75,10.833,37.175,37.22,48,50.976   c11.695,14.861,30.2,48.066,41.333,63.352c10.132,13.91,32.143,40.408,43.333,53.482c15.032,17.563,62,68.606,62,68.606   l42.667,26.917l46.333,29l51.333,34.453L1754,1185l155,66.834l255.499,55.739L2463,1309.25z"/>
	<path fill="none" d="M1402.333,938.333"/>
	<path fill="none" stroke="#009A3E" stroke-width="10" stroke-miterlimit="10" d="M1887,923.667l-14-9.333l-32.667-15.083   l-62-25.583L1727,848.5l-38-21.131L1645.667,799L1615,778.25l-9.333-20.375l-4-12.304V715v-10.667l-14-7.333l-28-19.333   l-7.333-11.333l-10-18l-20-19.667L1497,611.333l-22.667-20c0,0-28.667-27-30-27.333s-62.359-54.607-80.333-75.5   c-5.992-6.964-15.815-22.597-20.5-30.5c-3.877-6.541-10.93-20.044-14-27c-4.761-10.789-12.233-33.214-17-44   c-3.051-6.902-8.269-21.56-13.5-27c-3.955-4.113-14.893-8.454-20-11c-8.462-4.219-26.761-10.067-34.5-15.5   c-4.414-3.098-12.094-10.958-15-15.5c-4.479-7-8.538-23.445-12-31c-1.771-3.864-5.668-11.447-8-15   c-4.664-7.108-15.627-20.495-22.5-25.5c-8.598-6.261-29.257-12.733-39-17c-6.255-2.739-19.261-7.3-25-11   c-4.615-2.976-14.5-13-16.5-14.5s-20.353-42.702-27-57c-2.133-4.588-6.952-13.521-8.75-18.25c-2.496-6.564-6.321-20.125-7.75-27   c-0.783-3.765-0.3-11.801-2-15.25c-1.172-2.378-5.224-6.14-7.5-7.5c-1.681-1.004-5.561-2.515-7.5-2.25   c-1.392,0.19-4.072,1.77-4.75,3c-0.905,1.642-0.36,5.66,0,7.5c0.35,1.788,2.092,5.051,2.75,6.75   c1.899,4.905,5.572,14.765,7.25,19.75c1.564,4.647,4.139,14.119,5.75,18.75c1.808,5.196,6.528,15.199,8,20.5   c1.932,6.96,4.75,27.75,4.75,28.5s3.53,28.465,5.75,37.75c0.703,2.941,2.755,8.645,3.75,11.5c1.36,3.903,3.851,11.829,5.75,15.5   c2.28,4.408,10.25,15,10.25,17s6.331,5.587,8.75,7c4.211,2.46,12.55,7.521,16.75,10c8.226,4.854,24.036,15.954,33,19.25   c3.381,1.243,7,1.25,11.25,9s4.75,17,4.25,18.5s2.812,13.865,4.5,18.25c1.617,4.2,5.07,12.634,7.75,16.25   c4.056,5.471,15.091,13.778,20,18.5c3.95,3.799,11.242,12.05,15.5,15.5c2.518,2.04,5,3.25,8.25,10s10.935,25.522,14,34.25   c1.389,3.954,3.558,12.065,5,16c1.05,2.867,3.692,8.386,4.75,11.25c3.5,9.475,8.067,29.307,12.25,38.5c1.537,3.377,5.5,8.75,8,12.5   s10.422,13.404,14.75,17c4.198,3.487,6.75,4.25,16.75,14s16.905,15.878,21.583,22c2.43,3.18,7.167,11.757,9.245,14.706   c1.224,1.737,0.755,0.294,2.755,6.627s-0.142,5.743-3,8.333c-2.025,1.835-6,2-9,1.667s-5.637-2.516-7-4   c-2.492-2.713-6.943-8.611-9-11.667c-2.299-3.415-6.228-10.684-8.667-14c-2.94-3.998-9.497-11.485-13-15   c-3.669-3.681-12.014-9.97-15.667-13.667c-3.615-3.659-10.041-11.716-13.333-15.667c-3.375-4.049-10.338-11.995-13.333-16.333   c-3.881-5.623-10.23-17.762-13.667-23.667c-4.681-8.041-14.127-24.074-19-32c-1.705-2.772-4.666-7.333-8.333-10   s-18.727-8.834-24.667-12.333c-8.373-4.932-23.506-17.241-31.333-23c-5.088-3.744-15.458-10.982-20.333-15   c-12.05-9.93-34.198-32.026-46-42.25c-7.319-6.34-23-17.809-30-24.5c-5.914-5.653-21.25-23.75-22.25-24S1014,282,1014,282   s-13.691-26.281-18.333-35c-3.786-7.109-12.399-20.833-15.333-28.333c-1.598-4.084-2.572-12.983-4.333-17   c-3.436-7.832-14.713-21.083-18.667-28.667c-4.32-8.288-11.18-25.755-14-34.667c-2.324-7.342-6.119-22.349-7-30   c-0.124-1.076,0-3.25,0-4.333"/>
	<path fill="none" stroke="#009A3E" stroke-width="10" stroke-miterlimit="10" d="M1169.75,476l-8.25-2.5l-16.5-5.75   c0,0-19.5-8.5-21.75-10.25s-20-21.25-20-21.25l-21.75-20l-20-20.25l-12.5-16c0,0-11-12.5-14-16.5s-18.5-41-18.5-41l-18.5-31   l-10.5-29l-8.5-32V207"/>
	<path fill="none" stroke="#009A3E" stroke-width="10" stroke-miterlimit="10" d="M2684,1254.333l73.5,33.667l62.5,29.5   c0,0,29.5,15.5,34.5,16.5s26,0,26,0l27.5,3h29.5l32.25,9.5l26.25,5.5l20.5,8l25.5,10.5l30,15l16.333,3.833l15.334-2.333   l31.333,2.333l27.667,2.334l20,1.666l28.833,3.001"/>
	<path fill="none" stroke="#009A3E" stroke-width="10" stroke-miterlimit="10" d="M1405,1069.5l-36-23.5l-18-29l-60-61l-46.5-54.333   l-53-72.667l-38-37.667l-30.226-31.595L1102,737.5c0,0-15-14.5-19.5-17s-15-10.5-18-11s-29.5,0-29.5,0l-41,4.5"/>
	<polyline fill="none" stroke="#009A3E" stroke-width="10" stroke-miterlimit="10" points="1123.274,759.738 1131,793 1144,816.5    1157.5,839 1171.5,864 1183.5,885 1187.5,905.5 1190.5,931.417  "/>
	<path fill="none" stroke="#009A3E" stroke-width="10" stroke-miterlimit="10" d="M1271,1145l10,14.667V1176l-5,56l-5,41.666   l-6,39.459V1346l8,37.542V1418l-8,33.25l-15,36.051c0,0-6,30.701-5,32.7s4,29.999,4,29.999s-3,14.5,1,25.25   s-1.333,33.417-1.333,33.417l-0.333,42.333l6.667,48.001l3.333,53.333l4.61,50.667l8.056,64.666l6.667,51.334   c0,0,5.333,28.666,3.333,37.999s-10.667,35.333-10.667,35.333s-12,26.668-12,29.334s-5.333,34-5.333,34l3.333,34.666   c0,0,4.666,13.333,11.333,16s13.782,0,13.782,0l10.885-7.333l14-18.667l16-31.333l30-42c0,0,15.333-16.667,16-20.667   s4.667-30.666,4.667-30.666l7.333-18.667l16-41.333V1863l5.333-34v-25.333l2.667-28V1763"/>
	<path fill="none" stroke="#009A3E" stroke-width="10" stroke-miterlimit="10" d="M1278.883,1199.716l63.451,31.951l31.333,14.667c0,0,6,5.333,5.333,7.333s0.052,19.333,0.052,19.333v11.334"/>
</g>

<g id="others">
	<path fill="none" stroke="#727171" stroke-width="8" stroke-miterlimit="10" d="M2793.334,1258c0,0-460.293-381.601-613-509.667
		c-10.334-8.667-26.294-16.464-46.167-21.135c-16.68-3.92-34.167-0.531-34.167-0.531l-150,28"/>
	<path fill="none" stroke="#727171" stroke-width="8" stroke-miterlimit="10" d="M2535.667,1254.333L2127,787.667l-14.666-18
		c0,0-0.334-1.167-6.667-2.667c-2.596-0.615-13.636,0.516-13.636,0.516L1953,791.667"/>
	<path fill="none" stroke="#727171" stroke-width="8" stroke-miterlimit="10" d="M2513,1273.666L2127.667,831
		c0,0-9.639-11.204-12.01-14.066c-1.581-1.908-7.99-8.345-18.323-7.535c-5.19,0.407-18.561,3.372-18.561,3.372L1964.334,833"/>
	<path fill="none" stroke="#172A88" stroke-width="8" stroke-miterlimit="10" d="M2132.144,793.541c0,0-17.477-8.546-23.144-8.541
		c-2.37,0.002-9.333,1.667-9.333,1.667l-140,26.334"/>
	<path fill="none" stroke="#172A88" stroke-width="8" stroke-miterlimit="10" d="M2131.692,835.624c0,0-5.866-6.784-10.692-7.957
		c-2.753-0.669-11.333,0-11.333,0L1969,852.333"/>
	
		<line fill="none" stroke="#727171" stroke-width="18" stroke-miterlimit="10" x1="1964.334" y1="897.004" x2="1938.667" y2="745.976"/>
	<line fill="none" stroke="#727171" stroke-width="16" stroke-miterlimit="10" x1="2009.334" y1="866.667" x2="1989.667" y2="759"/>
	<line fill="none" stroke="#EB6100" stroke-width="16" stroke-miterlimit="10" x1="2051.667" y1="860.667" x2="2034.667" y2="767"/>
	<path fill="none" stroke="#727171" stroke-width="10" stroke-miterlimit="10" d="M2705.667,1298.001l-6.666-13.334l-10.334-8.666
		l-22-11L1509,770.5c0,0-34.215-16.068-46-20.5c-3.185-1.197-8.917-3.583-13-4.024c-8.451-0.912-34,0-34,0"/>
	<path fill="none" stroke="#172A88" stroke-width="6" stroke-miterlimit="10" d="M1682.333,905.667l40.333-69.333
		c0,0,4.428-5.607,6.333-7c4.333-3.167,7-3.667,7-3.667l201-34.333"/>
	<path fill="none" stroke="#172A88" stroke-width="6" stroke-miterlimit="10" d="M1700,917.333l14.333-24.667l24.333-40.333
		c0,0,2.57-3.088,3.667-3.833c4.417-3,7.708-4.006,7.708-4.006l190.292-31.661"/>
	<path fill="none" stroke="#172A88" stroke-width="6" stroke-miterlimit="10" d="M1717.333,927.667L1732,902l22-32.333
		c0,0,0.228-1.296,3.5-2.833c1.104-0.519,5.158-1.97,7.333-2.25l179.5-30.917"/>
	<path fill="none" stroke="#172A88" stroke-width="6" stroke-miterlimit="10" d="M1733.333,938.333l16.167-22.958l19-29
		c0,0,3.573-3.357,5-4.125c1.189-0.64,5.167-1.583,5.167-1.583l168.667-28.333"/>
	<path fill="none" stroke="#727171" stroke-width="10" stroke-miterlimit="10" d="M2440.001,1238l-71.834-61.833
		c0,0-7.97-6.345-11.834-8.833c-2.095-1.349-12.666-7.834-12.666-7.834l-714-294.417c0,0-14.873-4.588-20-5.25
		c-5.579-0.72-22.5,0-22.5,0L1452,884l-41.75,8.75"/>
	<path fill="none" stroke="#172A88" stroke-width="6" stroke-miterlimit="10" d="M2351.5,1211c0,0-185.71-124.848-249-169.503
		c-3.689-2.603-10.119-9.005-13.5-11.997c-2.014-1.782-6.127-5.4-7.499-7.714c-2.596-4.378-6-19.456-6-19.456l-4.167-20.33
		l-19.667-121.333"/>
	<polyline fill="none" stroke="#727171" stroke-width="10" stroke-miterlimit="10" points="2803,1414 1729.667,1466.001 
		1689.25,1468 1668.25,1468 1428.333,1439.001 	"/>
	<polyline fill="none" stroke="#727171" stroke-width="10" stroke-miterlimit="10" points="2884.75,1451.25 1487.667,1517.167 
		1435.5,1520.001 	"/>
	<polyline fill="none" stroke="#595757" stroke-width="12" stroke-miterlimit="10" points="2969.75,1509.5 2822,1524 1498,1636.167 
		1437.5,1641 	"/>
	
		<line fill="none" stroke="#172A88" stroke-width="4" stroke-miterlimit="10" x1="1922.655" y1="1374.667" x2="1924.678" y2="1599.934"/>
	<polyline fill="none" stroke="#172A88" stroke-width="4" stroke-miterlimit="10" points="1729.667,1466.001 1728,1448.25 
		1731,1439.75 1739.25,1433.25 1983.25,1385.625 	"/>
	<line fill="none" stroke="#172A88" stroke-width="5" stroke-miterlimit="10" x1="1881.833" y1="1457.834" x2="1423" y2="1309.25"/>
	<polyline fill="#7A6A56" stroke="#172A88" stroke-miterlimit="10" points="1420.5,1314.25 1423,1306 1426.5,1306 1428.333,1297 
		1443.75,1302.5 1442,1309.25 1446.75,1311.75 1445.25,1321.75 1439,1321.75 1433.625,1329.25 1421.75,1326.25 1423,1318 
		1419.5,1313.125 	"/>
	<polygon fill="#7A6A56" stroke="#172A88" stroke-miterlimit="10" points="1468.502,1638.523 1459.5,1623 1437.5,1623 
		1437.5,1657.5 1461.75,1657.5 	"/>
	<polygon fill="#7A6A56" stroke="#172A88" stroke-miterlimit="10" points="2910.25,1525.75 2911.5,1525.75 2921.5,1525.75 
		2932.75,1535.25 2940.75,1531.75 2940.75,1525.75 2971.5,1525.75 2986.75,1535.25 2986.75,1521.75 2962.5,1498 2910.25,1507.75 	
		"/>
	<polygon fill="#7A6A56" stroke="#172A88" stroke-miterlimit="10" points="2534.001,1221.001 2540.334,1204.001 2688.001,1263.334 
		2699.334,1268.001 2708.001,1276.334 2720.667,1298.001 2688.667,1299.667 2685.667,1289.334 2680.667,1283.667 2669.001,1278.334 
			"/>
	<polygon fill="#7A6A56" stroke="#172A88" stroke-miterlimit="10" points="1671.833,901.667 1743.667,943.667 1733.333,961.167 
		1663,920.833 	"/>
	<path fill="#7A6A56" stroke="#172A88" stroke-miterlimit="10" d="M1794.5,1374.667L1765,1344.5v-5l-15-10.25l-18.5-16.125
		l-24-15.124l-9.5-3.501l-15-8.5l-10.5-8l-38.5-40l-24-34l-7-6l-10-11.5l-41-15.5l-30.5-5l-47.5-15.5l-8-4.5l-19.25-28l-10.5-6.75
		l-18.75-5l-3-5.5V1096l14.25-35l3.75-17l0.75-11.5l-0.583-45.167l-2.667-20l-0.667-12.667l2.333-8l7.667-8.333H1454l10.333,1.333
		L1475,944l28,12l14.333,5.167l24,1.833h3l21.333,20.333l9.333,5l19,3.333l10.5,3.333l23.5,16.667l28,15.333l16.333-0.333l24-4.881
		H1719l35.667,4.547l17.333-4.547l26.667-5.786l17.333-2.333l28.667-3.092l18-2.908l12.333-4.333L1891.333,993l10-7.333L1916.5,976
		l3.5-8.5l17-4l14.5-3.984l26.621,11.371l5.379,8.613l6.167,12.153L1996,1002.5l3.5,2l3,1l13,25l5,3l22.667,44.5l4.833,2v3l18,43
		l8-0.5l22.5,31l9.5-2.5l15.5,12.5l7.5,0.5l16.5,9.5l22-2l9.5,4l13.5,6l16.5-1l9.5,0.5l17,18.5l9,2l16.375,12.375l11.5,13.25
		l5.125,1.625l3,1.25l12,5h9l16.75-4.5l14.25-5.25l30.25,0.75h18.5l8.5,1.25l1.5,1.75l12,12.25l6.25,10.083l7.25,14.917l3.25,7
		l-7.5,17.25l-41.167,28.834l-8.333,4.667l-15,1.666l-23.167-11.333l-19.166-7.667l-14.834-0.166l-10.5,1.333l-13.666,6.667
		l-7.834,8.166l-9.333,8.834l-6.5,3.666l-7.333,2.833l-9.334,1.5l-14.666,3.833l-17.5,5.334l-10.667,2.833l-7-3.167l-11.5,0.334
		l-9,5.334l-16.167,11.332l-13.166,2.5l-24.334,3.834L2077,1373.25l-12.667-0.25l-10.833,1.667H2041h-10.667H2015.5l-11-4.667
		l-29.5,0.25l-5-5.25l-15.25-1c0,0-16.917,0-17.25,1s-10.5,0.333-10.5,0.333l-15,3l-16,2.667l-14.167,1.667l-10.5,2l-6.667,1.666
		l-17,4.667l-5.667-2l-7.333,0.333L1827,1381l-7.333-3.333l-8,1.333l-4.667,2L1794.5,1374.667z"/>
	<polygon fill="#7A6A56" stroke="#172A88" stroke-miterlimit="10" points="1411.5,760.25 1416,737.5 1449,739 1456.5,740.75 
		1512,764 1506.5,778.25 1478.367,765.871 1471,762.5 1460,757.875 1450,754.25 1441.25,753.75 1434.25,754.25 	"/>
	<path fill="none" stroke="#172A88" stroke-width="6" stroke-miterlimit="10" d="M2071.334,981.725L2055.57,984h-8.225
		c0,0-15.349-2.464-21.846-5.25c-1.721-0.741-9.808-4.218-8.188-3.5c1.312,0.581-6.563-3.875-6.563-3.875l-10.179-7.852
		l-22.616-33.559l-13.621-30.715"/>
	<path fill="none" stroke="#172A88" stroke-width="6" stroke-miterlimit="10" d="M2028.696,978.322"/>
	<path fill="none" stroke="#172A88" stroke-width="6" stroke-miterlimit="10" d="M2000.571,963.523"/>
	<polyline fill="none" stroke="#172A88" stroke-width="6" stroke-miterlimit="10" points="1972.354,917.333 1989.667,912 
		1998.333,905.667 2002.667,902.167 2011.5,876.167 2010,867 	"/>
	<polyline fill="none" stroke="#172A88" stroke-width="4" stroke-miterlimit="10" points="1884.968,862.81 1862.667,733.333 
		1865.333,727.667 1870.667,725.307 1953,711 1959.667,711 1964.334,718 1969,749 	"/>
</g>

<g id="flowers">
	<g>
		<use xlink:href="#tree" transform="translate(0, 0)"></use>
		<use xlink:href="#tree" transform="translate(350, 240)"></use>
		<use xlink:href="#tree" transform="translate(300, 520)"></use>
		<use xlink:href="#tree" transform="translate(155, 750)"></use>
		<use xlink:href="#tree" transform="translate(218, 1164)"></use>
		<use xlink:href="#tree" transform="translate(811, 839)"></use>
		<use xlink:href="#tree" transform="translate(2029, -104)"></use>
		<use xlink:href="#tree" transform="translate(2301, 37)"></use>
		<use xlink:href="#tree" transform="translate(2521, 37)"></use>
		<use xlink:href="#tree" transform="translate(2681, 145) scale(0.6)"></use>
		<use xlink:href="#tree" transform="translate(2441, 267)"></use>
		<use xlink:href="#tree" transform="translate(2681, 287)"></use>
		<use xlink:href="#tree" transform="translate(2931, 457)"></use>
		<use xlink:href="#tree" transform="translate(2024, 1208)"></use>
		<use xlink:href="#tree" transform="translate(3022, 1274)"></use>
		<use xlink:href="#tree" transform="translate(3540, 915) scale(0.6)"></use>
	</g>

	<g>
		<use xlink:href="#tree2" transform="translate(0, 0)"></use>
		<use xlink:href="#tree2" transform="translate(437, 504)"></use>
		<use xlink:href="#tree2" transform="translate(347, 1004)"></use>
		<use xlink:href="#tree2" transform="translate(650, 1245)"></use>
		<use xlink:href="#tree2" transform="translate(387, 1377)"></use>
		<use xlink:href="#tree2" transform="translate(957, -447)"></use>
		<use xlink:href="#tree2" transform="translate(1345, -426)"></use>
		<use xlink:href="#tree2" transform="translate(1260, -226)"></use>
		<use xlink:href="#tree2" transform="translate(1370, -89)"></use>
		<use xlink:href="#tree2" transform="translate(2151, -289)"></use>
		<use xlink:href="#tree2" transform="translate(2267, 259)"></use>
		<use xlink:href="#tree2" transform="translate(2972, 606)"></use>
		<use xlink:href="#tree2" transform="translate(3082, 786)"></use>
		<use xlink:href="#tree2" transform="translate(2907, 1409)"></use>
	</g>

	<g>
		<use xlink:href="#tree3" transform="translate(0, 0)"></use>
		<use xlink:href="#tree3" transform="translate(121, 56)"></use>
		<use xlink:href="#tree3" transform="translate(834, 739)"></use>
		<use xlink:href="#tree3" transform="translate(2600, 811)"></use>
		<use xlink:href="#tree3" transform="translate(2645, 55)"></use>
	</g>

	<g>
		<use xlink:href="#tree4" transform="translate(0, 0)"></use>
		<use xlink:href="#tree4" transform="translate(63, 272)"></use>
		<use xlink:href="#tree4" transform="translate(339, 459)"></use>
		<use xlink:href="#tree4" transform="translate(2251, 1100)"></use>
	</g>

	<g>
		<use xlink:href="#tree5" transform="translate(0, 0)"></use>
	</g>

	<g>
		<use xlink:href="#tree6" transform="translate(0, 0)"></use>
		<use xlink:href="#tree6" transform="translate(2557, 963)"></use>
	</g>
</g>

<g id="cars">
	<use xlink:href="#car"></use>
	<use xlink:href="#car" transform="translate(120, -825)"></use>
</g>

<g id="plants">
	<use xlink:href="#plant_base" transform="matrix(0.3558 0 0 0.3558 1554.0518 870.2959)"></use>
	<use xlink:href="#plant_base" transform="matrix(0.3687 0 0 0.3687 3449.0732 1784.2773)"></use>
	<use xlink:href="#plant_base" transform="matrix(0.4121 0 0 0.4121 2986.75 1123.6846)"></use>
	<use xlink:href="#plant_base" transform="matrix(0.4005 0 0 0.4005 373.0728 125.2764)"></use>
</g>

</svg>
